<?xml version="1.0" encoding="UTF-8"?>
<svg version="1.1" xmlns="http://www.w3.org/2000/svg" width="460" height="460">
<path d="M0 0 C151.8 0 303.6 0 460 0 C460 151.8 460 303.6 460 460 C308.2 460 156.4 460 0 460 C0 308.2 0 156.4 0 0 Z " fill="#FCFBFA" transform="translate(0,0)"/>
<path d="M0 0 C8.23453313 5.31750295 9.9715826 14.38088935 12.1171875 23.3671875 C12.69984375 23.295 13.2825 23.2228125 13.8828125 23.1484375 C33.97611996 20.87372345 33.97611996 20.87372345 40.1171875 25.3671875 C45.7655716 30.88421383 47.37020766 37.08955078 49.1171875 44.6171875 C50.8790572 51.22419888 53.24332359 53.91237427 59.1171875 57.3671875 C61.68755243 58.13172035 64.1310747 58.76287764 66.7421875 59.3046875 C81.94575608 62.82343263 94.57306911 68.73201412 103.1171875 82.3671875 C106.6022207 88.68278757 106.6545731 94.49003743 106.6171875 101.6171875 C106.6162207 103.32817627 106.6162207 103.32817627 106.61523438 105.07373047 C106.43617815 115.3911233 104.40158358 124.63129911 101.1171875 134.3671875 C100.55322266 134.34624023 99.98925781 134.32529297 99.40820312 134.30371094 C96.81138501 134.21970249 94.21485388 134.16826521 91.6171875 134.1171875 C90.286875 134.06691406 90.286875 134.06691406 88.9296875 134.015625 C81.49841045 133.90634151 76.3055451 135.58759369 70.6796875 140.4921875 C68.29268979 143.35658475 67.98676071 145.09039886 67.90625 148.7421875 C67.86661133 150.08108032 67.86661133 150.08108032 67.82617188 151.44702148 C67.78459961 152.89250366 67.78459961 152.89250366 67.7421875 154.3671875 C67.49580807 161.32012691 66.99199564 167.98554082 65.6171875 174.8046875 C63.99310763 183.06793687 63.79240889 191.27785971 63.6171875 199.6796875 C63.41735739 208.90928897 63.07077895 218.03044704 61.7421875 227.1796875 C61.62810547 227.97737549 61.51402344 228.77506348 61.39648438 229.59692383 C58.01894649 250.77200929 48.77677935 270.80744527 34.1171875 286.3671875 C33.48296875 287.05554688 32.84875 287.74390625 32.1953125 288.453125 C18.84441292 301.50865069 -1.22223231 305.60264983 -19.1862793 305.54785156 C-40.54483595 305.28192985 -59.76947792 298.54385533 -75.5078125 283.9296875 C-76.2915625 283.0840625 -77.0753125 282.2384375 -77.8828125 281.3671875 C-78.41390625 280.86445313 -78.945 280.36171875 -79.4921875 279.84375 C-90.38667139 268.80464906 -93.98571188 252.99645124 -94.1328125 237.9921875 C-93.93729813 215.44616361 -85.68629867 195.181146 -71.8828125 177.3671875 C-71.2228125 177.3671875 -70.5628125 177.3671875 -69.8828125 177.3671875 C-69.5940625 176.7484375 -69.3053125 176.1296875 -69.0078125 175.4921875 C-67.8828125 173.3671875 -67.8828125 173.3671875 -65.8828125 171.3671875 C-63.7578125 171.7421875 -63.7578125 171.7421875 -61.8828125 172.3671875 C-61.85703125 173.03105469 -61.83125 173.69492188 -61.8046875 174.37890625 C-61.71960938 175.70341797 -61.71960938 175.70341797 -61.6328125 177.0546875 C-61.58640625 177.92480469 -61.54 178.79492188 -61.4921875 179.69140625 C-60.66222752 183.33578179 -59.74422583 184.92333833 -56.8828125 187.3671875 C-53.71213314 187.87909227 -50.63874751 187.65485009 -47.4453125 187.4296875 C-38.66442408 186.84786169 -38.66442408 186.84786169 -34.97265625 189.30078125 C-34.28300781 189.98269531 -33.59335938 190.66460937 -32.8828125 191.3671875 C-28.3718481 192.8708423 -23.9203799 192.55160526 -19.1953125 192.5546875 C-17.7422168 192.57305664 -17.7422168 192.57305664 -16.25976562 192.59179688 C-11.78397693 192.60087555 -7.81921965 192.49183705 -3.51953125 191.1875 C0.1171875 190.3671875 0.1171875 190.3671875 3.0234375 191.37890625 C3.879375 191.93191406 4.7353125 192.48492187 5.6171875 193.0546875 C6.56078125 193.61800781 7.504375 194.18132812 8.4765625 194.76171875 C9.34796875 195.29152344 10.219375 195.82132813 11.1171875 196.3671875 C18.27509336 200.30403572 26.12793409 200.18704538 34.1171875 199.3671875 C37.20932511 198.35172219 39.33988313 197.12970758 42.1171875 195.3671875 C43.1071875 195.0371875 44.0971875 194.7071875 45.1171875 194.3671875 C46.22290502 192.5795456 46.22290502 192.5795456 47.1171875 190.3671875 C47.519375 189.57183594 47.9215625 188.77648437 48.3359375 187.95703125 C56.34771591 171.37167289 54.90613647 155.80143329 50.02734375 138.49609375 C46.99018793 127.66308008 45.64432959 119.08340957 50.1171875 108.3671875 C52.56981613 104.81314694 55.20060137 101.32548057 59.1171875 99.3671875 C59.4471875 98.3771875 59.7771875 97.3871875 60.1171875 96.3671875 C58.91191406 96.5115625 57.70664062 96.6559375 56.46484375 96.8046875 C28.34403676 99.89954573 -0.89663126 101.07252041 -27.6171875 90.92578125 C-33.21456026 88.51311647 -33.21456026 88.51311647 -38.9453125 89.265625 C-46.91042421 95.33581094 -50.13902117 102.9312222 -52.8828125 112.3671875 C-54.5328125 112.3671875 -56.1828125 112.3671875 -57.8828125 112.3671875 C-59.0388852 110.1637069 -60.18265971 107.95515594 -61.3203125 105.7421875 C-61.64580078 105.12472656 -61.97128906 104.50726563 -62.30664062 103.87109375 C-66.60933698 95.44313181 -67.76462458 84.04190218 -65.17578125 74.859375 C-64.89347656 74.20195313 -64.61117187 73.54453125 -64.3203125 72.8671875 C-62.15837373 67.60333658 -63.43510482 63.94733227 -64.9453125 58.6171875 C-66.68192528 51.9688117 -66.38341561 45.02986532 -64.8828125 38.3671875 C-63.8928125 38.3671875 -62.9028125 38.3671875 -61.8828125 38.3671875 C-61.8530835 39.19911621 -61.8530835 39.19911621 -61.82275391 40.04785156 C-61.72723599 42.57142443 -61.61766683 45.09419974 -61.5078125 47.6171875 C-61.476875 48.48988281 -61.4459375 49.36257812 -61.4140625 50.26171875 C-61.35605469 51.52822266 -61.35605469 51.52822266 -61.296875 52.8203125 C-61.2654541 53.59536133 -61.2340332 54.37041016 -61.20166016 55.16894531 C-60.85254744 57.57584492 -60.07730146 59.26321045 -58.8828125 61.3671875 C-58.93501953 59.53607422 -58.93501953 59.53607422 -58.98828125 57.66796875 C-59.35502149 39.39239061 -56.4629322 25.129149 -44.3359375 10.9140625 C-32.8283088 -1.03334819 -15.86269572 -7.54128157 0 0 Z " fill="#2F456D" transform="translate(222.8828125,48.6328125)"/>
<path d="M0 0 C0.70769531 -0.01224609 1.41539062 -0.02449219 2.14453125 -0.03710938 C9.65100414 -0.05807718 13.72757321 2.02474394 19.125 7.1875 C23.19858588 13.94133122 23.07683608 20.51140259 22.125 28.1875 C19.60745765 35.63942534 15.9099224 41.65290908 9.5703125 46.3359375 C7.37708928 49.14563427 7.19239617 52.31631004 6.6875 55.75 C5.08463229 65.21936376 2.93998692 74.7987482 -4.875 81.1875 C-7.0625 81.87109375 -7.0625 81.87109375 -8.875 82.1875 C-8.40809826 90.02653445 -7.59145771 97.52065554 -5.875 105.1875 C-2.905 105.1875 0.065 105.1875 3.125 105.1875 C3.125 105.8475 3.125 106.5075 3.125 107.1875 C5.435 107.8475 7.745 108.5075 10.125 109.1875 C10.125 109.8475 10.125 110.5075 10.125 111.1875 C10.70894531 111.27128906 11.29289063 111.35507812 11.89453125 111.44140625 C14.77323867 112.4043364 15.88102208 113.80806444 17.8125 116.125 C18.41449219 116.83527344 19.01648438 117.54554688 19.63671875 118.27734375 C21.125 120.1875 21.125 120.1875 22.125 122.1875 C24.85421776 122.82241174 27.55981122 123.36540811 30.3125 123.875 C41.92170059 126.25273242 53.7598814 130.29133445 61.125 140.1875 C66.19464424 148.8058952 66.42245044 158.85594183 64.44140625 168.5234375 C62.44564475 174.96618626 59.62932774 181.0911749 55.125 186.1875 C54.465 186.1875 53.805 186.1875 53.125 186.1875 C52.9703125 187.1465625 52.9703125 187.1465625 52.8125 188.125 C52.585625 188.805625 52.35875 189.48625 52.125 190.1875 C51.135 190.5175 50.145 190.8475 49.125 191.1875 C48.82851563 191.78175781 48.53203125 192.37601563 48.2265625 192.98828125 C40.60359265 208.20718914 13.84049606 216.20081386 -0.875 221.1875 C-5.49688844 222.70003946 -10.16030568 223.9957462 -14.875 225.1875 C-15.88949219 225.46207031 -16.90398437 225.73664063 -17.94921875 226.01953125 C-25.16345253 227.85703371 -32.32626707 228.79511063 -39.7253418 229.45361328 C-43.95041979 229.8366001 -48.03516885 230.40494031 -52.19921875 231.22265625 C-61.11140378 232.7470438 -70.10964309 232.58131061 -79.125 232.5625 C-80.05608582 232.56228851 -80.98717163 232.56207703 -81.94647217 232.56185913 C-96.60193853 232.52863214 -110.59473512 231.76048056 -124.875 228.1875 C-125.65423828 228.00026367 -126.43347656 227.81302734 -127.23632812 227.62011719 C-137.14863508 225.16115158 -147.48147984 221.69524506 -153.5 212.875 C-155.56328503 207.3416447 -156.09510021 202.4482988 -153.9921875 196.828125 C-149.22212654 187.66708077 -142.81346205 180.50032068 -132.875 177.1875 C-133.205 174.2175 -133.535 171.2475 -133.875 168.1875 C-131.83325942 168.49951674 -129.79161087 168.81213569 -127.75 169.125 C-126.61304688 169.29902344 -125.47609375 169.47304688 -124.3046875 169.65234375 C-122.17865432 169.98408241 -120.05621481 170.34122665 -117.94140625 170.73828125 C-98.68498849 173.55928513 -77.82769115 169.47787225 -61.875 158.1875 C-39.71095851 140.91506584 -30.73061299 113.13600585 -27.28125 86.19287109 C-26.5722339 79.7717514 -26.53479776 73.32867932 -26.4375 66.875 C-26.24337608 57.63660427 -25.80443627 48.66170573 -23.96118164 39.58789062 C-22.59830945 32.61078619 -22.42465168 25.6278851 -22.34179688 18.53100586 C-22.15022795 10.06566764 -22.15022795 10.06566764 -18.875 6.1875 C-16.9375 4.640625 -16.9375 4.640625 -14.875 3.4375 C-14.194375 3.03015625 -13.51375 2.6228125 -12.8125 2.203125 C-8.58248234 -0.01422297 -4.65479086 0.00419351 0 0 Z " fill="#FDBB5E" transform="translate(311.875,181.8125)"/>
<path d="M0 0 C8.23453313 5.31750295 9.9715826 14.38088935 12.1171875 23.3671875 C12.69984375 23.295 13.2825 23.2228125 13.8828125 23.1484375 C33.97611996 20.87372345 33.97611996 20.87372345 40.1171875 25.3671875 C45.7655716 30.88421383 47.37020766 37.08955078 49.1171875 44.6171875 C50.8790572 51.22419888 53.24332359 53.91237427 59.1171875 57.3671875 C61.68755243 58.13172035 64.1310747 58.76287764 66.7421875 59.3046875 C81.94575608 62.82343263 94.57306911 68.73201412 103.1171875 82.3671875 C106.6022207 88.68278757 106.6545731 94.49003743 106.6171875 101.6171875 C106.6162207 103.32817627 106.6162207 103.32817627 106.61523438 105.07373047 C106.43617815 115.3911233 104.40158358 124.63129911 101.1171875 134.3671875 C100.55322266 134.34624023 99.98925781 134.32529297 99.40820312 134.30371094 C96.81138501 134.21970249 94.21485388 134.16826521 91.6171875 134.1171875 C90.286875 134.06691406 90.286875 134.06691406 88.9296875 134.015625 C81.49841045 133.90634151 76.3055451 135.58759369 70.6796875 140.4921875 C68.29268979 143.35658475 67.98676071 145.09039886 67.90625 148.7421875 C67.87982422 149.63711914 67.85339844 150.53205078 67.82617188 151.45410156 C67.78459961 152.8960791 67.78459961 152.8960791 67.7421875 154.3671875 C66.85446136 178.89263979 66.85446136 178.89263979 63.1171875 186.3671875 C62.4571875 186.3671875 61.7971875 186.3671875 61.1171875 186.3671875 C61.1171875 189.9971875 61.1171875 193.6271875 61.1171875 197.3671875 C59.7971875 197.3671875 58.4771875 197.3671875 57.1171875 197.3671875 C56.7871875 193.7371875 56.4571875 190.1071875 56.1171875 186.3671875 C55.1271875 186.3671875 54.1371875 186.3671875 53.1171875 186.3671875 C53.1171875 189.6671875 53.1171875 192.9671875 53.1171875 196.3671875 C51.7971875 196.6971875 50.4771875 197.0271875 49.1171875 197.3671875 C48.7871875 196.3771875 48.4571875 195.3871875 48.1171875 194.3671875 C47.4675 195.1096875 47.4675 195.1096875 46.8046875 195.8671875 C45.1171875 197.3671875 45.1171875 197.3671875 42.1171875 197.3671875 C42.1171875 198.0271875 42.1171875 198.6871875 42.1171875 199.3671875 C39.40839415 200.72158418 37.10785482 200.43220201 34.1171875 200.3671875 C35.1071875 199.7071875 36.0971875 199.0471875 37.1171875 198.3671875 C38.1278125 197.6659375 39.1384375 196.9646875 40.1796875 196.2421875 C43.1171875 194.3671875 43.1171875 194.3671875 45.1171875 194.3671875 C45.78509074 193.03447317 46.45142067 191.70097037 47.1171875 190.3671875 C47.519375 189.57183594 47.9215625 188.77648437 48.3359375 187.95703125 C56.34771591 171.37167289 54.90613647 155.80143329 50.02734375 138.49609375 C46.99018793 127.66308008 45.64432959 119.08340957 50.1171875 108.3671875 C52.56981613 104.81314694 55.20060137 101.32548057 59.1171875 99.3671875 C59.6121875 97.8821875 59.6121875 97.8821875 60.1171875 96.3671875 C58.30927734 96.58375 58.30927734 96.58375 56.46484375 96.8046875 C28.34403676 99.89954573 -0.89663126 101.07252041 -27.6171875 90.92578125 C-33.21456026 88.51311647 -33.21456026 88.51311647 -38.9453125 89.265625 C-46.91042421 95.33581094 -50.13902117 102.9312222 -52.8828125 112.3671875 C-54.5328125 112.3671875 -56.1828125 112.3671875 -57.8828125 112.3671875 C-59.0388852 110.1637069 -60.18265971 107.95515594 -61.3203125 105.7421875 C-61.64580078 105.12472656 -61.97128906 104.50726563 -62.30664062 103.87109375 C-66.60933698 95.44313181 -67.76462458 84.04190218 -65.17578125 74.859375 C-64.75232422 73.87324219 -64.75232422 73.87324219 -64.3203125 72.8671875 C-62.15837373 67.60333658 -63.43510482 63.94733227 -64.9453125 58.6171875 C-66.68192528 51.9688117 -66.38341561 45.02986532 -64.8828125 38.3671875 C-63.8928125 38.3671875 -62.9028125 38.3671875 -61.8828125 38.3671875 C-61.86299316 38.92180664 -61.84317383 39.47642578 -61.82275391 40.04785156 C-61.72723599 42.57142443 -61.61766683 45.09419974 -61.5078125 47.6171875 C-61.476875 48.48988281 -61.4459375 49.36257812 -61.4140625 50.26171875 C-61.37539062 51.10605469 -61.33671875 51.95039062 -61.296875 52.8203125 C-61.2654541 53.59536133 -61.2340332 54.37041016 -61.20166016 55.16894531 C-60.85254744 57.57584492 -60.07730146 59.26321045 -58.8828125 61.3671875 C-58.91761719 60.14644531 -58.95242187 58.92570312 -58.98828125 57.66796875 C-59.35502149 39.39239061 -56.4629322 25.129149 -44.3359375 10.9140625 C-32.8283088 -1.03334819 -15.86269572 -7.54128157 0 0 Z " fill="#2F466F" transform="translate(222.8828125,48.6328125)"/>
<path d="M0 0 C0.70769531 -0.01224609 1.41539062 -0.02449219 2.14453125 -0.03710938 C9.65100414 -0.05807718 13.72757321 2.02474394 19.125 7.1875 C23.19858588 13.94133122 23.07683608 20.51140259 22.125 28.1875 C19.60745765 35.63942534 15.9099224 41.65290908 9.5703125 46.3359375 C7.37708928 49.14563427 7.19239617 52.31631004 6.6875 55.75 C5.08463229 65.21936376 2.93998692 74.7987482 -4.875 81.1875 C-7.0625 81.87109375 -7.0625 81.87109375 -8.875 82.1875 C-8.64882657 93.64009998 -6.6104378 106.14790722 -1.74609375 116.6171875 C0.95652794 124.59173939 0.37995984 135.63378859 -1.83203125 143.66015625 C-5.47079253 150.94816515 -11.62636311 156.1281807 -17.875 161.1875 C-18.58398438 161.7753125 -19.29296875 162.363125 -20.0234375 162.96875 C-21.875 164.1875 -21.875 164.1875 -24.875 164.1875 C-24.875 164.8475 -24.875 165.5075 -24.875 166.1875 C-43.45118876 174.09452963 -59.18044232 179.3751141 -79.58056641 179.37280273 C-81.7375061 179.37498735 -83.89393181 179.39318102 -86.05078125 179.41210938 C-95.49129109 179.45219618 -103.94791127 179.10622354 -112.4375 174.5625 C-113.70787109 173.89347656 -113.70787109 173.89347656 -115.00390625 173.2109375 C-115.62136719 172.87320313 -116.23882812 172.53546875 -116.875 172.1875 C-114.32964674 170.91482337 -112.20948716 171.17525539 -109.41650391 171.25292969 C-88.65810445 171.80769962 -69.56395545 166.03188305 -54.25390625 151.65625 C-32.75176251 129.34203843 -26.88692847 96.68521579 -26.4375 66.875 C-26.24337608 57.63660427 -25.80443627 48.66170573 -23.96118164 39.58789062 C-22.59830945 32.61078619 -22.42465168 25.6278851 -22.34179688 18.53100586 C-22.15022795 10.06566764 -22.15022795 10.06566764 -18.875 6.1875 C-16.9375 4.640625 -16.9375 4.640625 -14.875 3.4375 C-14.194375 3.03015625 -13.51375 2.6228125 -12.8125 2.203125 C-8.58248234 -0.01422297 -4.65479086 0.00419351 0 0 Z " fill="#F3946D" transform="translate(311.875,181.8125)"/>
<path d="M0 0 C2.23920615 0.79608938 4.46065943 1.63265521 6.68237305 2.47631836 C28.91845043 10.80031158 54.4429097 10.95907122 77.91918945 8.22045898 C80.82634993 7.91244937 83.70398315 7.90353469 86.625 7.9375 C88.16027344 7.95103516 88.16027344 7.95103516 89.7265625 7.96484375 C90.85191406 7.98224609 90.85191406 7.98224609 92 8 C91.61431269 10.4444236 91.33590575 11.69423964 89.4765625 13.38671875 C88.86554688 13.81597656 88.25453125 14.24523437 87.625 14.6875 C83.36445902 18.11863239 82.22839719 21.80293496 81 27 C80.81824219 27.68191406 80.63648438 28.36382812 80.44921875 29.06640625 C78.59165768 37.06199522 81.3071775 44.44305463 83.46533203 52.09814453 C88.12016102 68.65573258 88.75563216 84.26153109 81.09375 100.13671875 C77.78244644 105.77776088 72.15521428 109.94826191 66 112 C54.74592386 112.97619 46.64314719 111.34687581 36.7265625 105.70703125 C36.05367188 105.32933594 35.38078125 104.95164062 34.6875 104.5625 C33.85798828 104.03849609 33.85798828 104.03849609 33.01171875 103.50390625 C30.38648373 102.84632311 28.63633363 103.66443113 26.12084961 104.4777832 C21.80414889 105.54068442 17.35851048 105.32728599 12.9375 105.3125 C11.97005859 105.32861328 11.00261719 105.34472656 10.00585938 105.36132812 C4.57780189 105.36504343 0.67514463 105.07437511 -4 102 C-4.66 101.34 -5.32 100.68 -6 100 C-7.95695581 99.82128198 -7.95695581 99.82128198 -10.17578125 100.015625 C-11.00400391 100.04914063 -11.83222656 100.08265625 -12.68554688 100.1171875 C-14.42602321 100.20518184 -16.16577072 100.30915667 -17.90429688 100.4296875 C-22.51698574 100.58689765 -24.37084699 100.49699131 -28.10546875 97.546875 C-30.79573056 93.65697304 -30.45422518 89.54225177 -30 85 C-28.74445313 85.04640625 -27.48890625 85.0928125 -26.1953125 85.140625 C-16.85937688 85.37921934 -9.48139644 85.32763736 -1 81 C-0.34 81 0.32 81 1 81 C1 80.34 1 79.68 1 79 C2.0828125 78.01 2.0828125 78.01 3.1875 77 C10.29094937 70.05845261 11.81880532 61.58684592 12 52 C15.3 52 18.6 52 22 52 C21.96519531 52.82242188 21.93039063 53.64484375 21.89453125 54.4921875 C21.6413116 64.93448344 22.89097964 74.84296681 30 83 C38.89888359 90.3069545 46.80284308 90.61548854 58 90 C65.04619107 88.87441037 70.39601115 84.2565227 75 79 C76.68578229 76.09156243 77.89596782 73.1675209 79 70 C79.33 69.34 79.66 68.68 80 68 C80.7567878 60.04752488 79.98733204 53.92609234 76 47 C75.401875 45.9275 74.80375 44.855 74.1875 43.75 C69.45209675 37.79692163 63.42220695 34.53333018 56 33 C52.60017572 32.77070953 49.22788618 32.62572969 45.8203125 32.6015625 C43 32 43 32 41.1171875 29.7109375 C40 27 40 27 40 23 C38.865625 23.33 37.73125 23.66 36.5625 24 C29.17769025 25.6859212 21.5252141 25.15551533 14 25 C13.74992187 25.76441406 13.49984375 26.52882812 13.2421875 27.31640625 C11.87109302 30.27848771 10.85976659 31.23988074 8.125 32.9375 C7.44695312 33.37964844 6.76890625 33.82179687 6.0703125 34.27734375 C4 35 4 35 1.921875 34.2578125 C0.29473995 33.19289891 -1.29490881 32.07104368 -2.875 30.9375 C-9.57061513 27.08463526 -18.7528944 27.26387758 -26.125 28.875 C-27.4214372 29.23315969 -28.71366438 29.60710251 -30 30 C-31.33195716 30.3387905 -32.66493976 30.67365194 -34 31 C-32.5435664 27.16031141 -30.71785783 25.68993538 -27 24 C-25.00060639 23.95075385 -22.99923733 23.94477245 -21 24 C-20.86464844 23.23816406 -20.72929687 22.47632813 -20.58984375 21.69140625 C-18.71204213 12.68470506 -15.30262299 6.01769034 -7.875 0.375 C-4.36894321 -1.30180977 -3.68839467 -1.01903087 0 0 Z " fill="#F3C2A0" transform="translate(191,137)"/>
<path d="M0 0 C0 0.66 0 1.32 0 2 C0.60328125 2.24105469 1.2065625 2.48210937 1.828125 2.73046875 C6.02428103 5.1832578 7.52066618 9.53276268 9 14 C10.11808782 21.91262153 9.5862547 29.30455865 5 36 C-0.53152186 42.68481213 -5.58275199 47.4722278 -14.48828125 48.33984375 C-22.41224613 48.66119149 -28.0250698 48.4130675 -34 43 C-34.93585938 42.22076172 -34.93585938 42.22076172 -35.890625 41.42578125 C-41.39125473 36.46828093 -44.49831181 31.21521517 -45.37890625 23.81640625 C-45.62631061 16.91302661 -45.02715318 11.67803585 -41 6 C-40.56429687 5.37351563 -40.12859375 4.74703125 -39.6796875 4.1015625 C-29.44722574 -9.1503142 -13.15712442 -8.0553823 0 0 Z " fill="#FAC5A0" transform="translate(260,178)"/>
<path d="M0 0 C0.70769531 -0.01224609 1.41539062 -0.02449219 2.14453125 -0.03710938 C9.65100414 -0.05807718 13.72757321 2.02474394 19.125 7.1875 C23.19858588 13.94133122 23.07683608 20.51140259 22.125 28.1875 C19.84946342 34.92308829 16.58505318 40.61286085 11.125 45.1875 C8.23559814 47.66413017 7.6361156 49.40524458 7.125 53.1875 C6.795 52.5275 6.465 51.8675 6.125 51.1875 C5.2071875 51.88617188 4.289375 52.58484375 3.34375 53.3046875 C2.10465749 54.22461982 0.86504615 55.14385357 -0.375 56.0625 C-0.97570312 56.52269531 -1.57640625 56.98289063 -2.1953125 57.45703125 C-7.26176513 61.17602308 -11.96876273 63.22366886 -18.40625 63.1640625 C-20.22916667 62.83854167 -22.05208333 62.51302083 -23.875 62.1875 C-27.34007007 54.96416162 -25.4943788 46.84390511 -23.875 39.25 C-22.50929266 32.54108729 -22.49752793 25.71659927 -22.39257812 18.89086914 C-22.15039523 10.022473 -22.15039523 10.022473 -18.875 6.1875 C-16.9375 4.640625 -16.9375 4.640625 -14.875 3.4375 C-14.194375 3.03015625 -13.51375 2.6228125 -12.8125 2.203125 C-8.58248234 -0.01422297 -4.65479086 0.00419351 0 0 Z " fill="#FAAC83" transform="translate(311.875,181.8125)"/>
<path d="M0 0 C3.67780601 0.61773414 6.51592022 2.26104388 9.7578125 4.046875 C18.3681674 8.34594582 27.93348473 10.56751775 37.51171875 10.546875 C38.70796875 10.54945313 39.90421875 10.55203125 41.13671875 10.5546875 C44.08088732 10.43882901 46.64588947 10.04177152 49.51171875 9.421875 C53.60406386 9.06301843 57.24242173 8.89558111 61.07421875 10.484375 C63.38250419 13.59554233 62.99588076 15.60909915 62.51171875 19.421875 C59.24970911 30.44642096 53.29474622 36.67452031 43.51171875 42.421875 C37.23889898 45.43035818 30.51714722 47.93178288 23.51171875 46.421875 C19.13027666 44.07467388 19.13027666 44.07467388 17.51171875 41.421875 C16.92940066 38.75394957 16.70192829 36.25909631 16.6171875 33.53125 C16.74885111 31.43536959 16.74885111 31.43536959 15.51171875 30.421875 C13.09369557 30.00473342 13.09369557 30.00473342 10.51171875 30.421875 C8.83042524 32.15735998 8.83042524 32.15735998 7.57421875 34.421875 C4.86871692 38.33444688 4.86871692 38.33444688 1.44921875 39.171875 C-3.66119588 37.86708829 -6.63143932 34.7071379 -9.48828125 30.421875 C-12.75015595 21.65642571 -13.37250495 14.32016048 -10.4375 5.4375 C-8.04067406 0.34794369 -5.30220388 -0.17076341 0 0 Z " fill="#F8C39E" transform="translate(182.48828125,252.578125)"/>
<path d="M0 0 C0.99 0 1.98 0 3 0 C3.391875 0.886875 3.78375 1.77375 4.1875 2.6875 C9.09555577 11.65739503 17.85944739 15.99392223 27.1953125 19.2265625 C30.64423856 20.1776591 33.94841759 20.5666532 37.515625 20.7265625 C40 21 40 21 43.2199707 22.00048828 C46.97999396 22.99471002 50.08820964 23.25814579 53.96484375 23.265625 C55.25970703 23.26820313 56.55457031 23.27078125 57.88867188 23.2734375 C58.55439209 23.26924805 59.2201123 23.26505859 59.90600586 23.26074219 C61.92917994 23.250044 63.9514627 23.26066542 65.97460938 23.2734375 C72.71234647 23.26003574 78.55157748 22.92296008 85 21 C87.26663051 20.67729328 89.5377681 20.3845154 91.8125 20.125 C98.31187263 19.24219751 103.95769471 17.49137706 110 15 C117.50632911 12 117.50632911 12 122 12 C122 11.34 122 10.68 122 10 C124.97 8.68 127.94 7.36 131 6 C128.90704839 10.18590321 126.71430116 12.08388119 123.0625 14.75 C122.25522461 15.36681641 122.25522461 15.36681641 121.43164062 15.99609375 C117.38484998 19 117.38484998 19 114 19 C114 19.66 114 20.32 114 21 C106.71428571 25.57142857 106.71428571 25.57142857 102 25 C101.505 26.485 101.505 26.485 101 28 C99.05395508 28.76782227 99.05395508 28.76782227 96.51953125 29.31640625 C95.60236328 29.52330078 94.68519531 29.73019531 93.74023438 29.94335938 C92.77408203 30.14767578 91.80792969 30.35199219 90.8125 30.5625 C88.92264085 30.97803744 87.03330154 31.39594727 85.14453125 31.81640625 C84.30253174 31.99631104 83.46053223 32.17621582 82.59301758 32.36157227 C79.91729038 32.98050883 79.91729038 32.98050883 77.05224609 34.00463867 C65.38152801 37.81055114 52.76774539 37.31331147 40.6394043 37.26074219 C37.67541348 37.24995602 34.71202015 37.26072812 31.74804688 37.2734375 C29.83593618 37.27211678 27.92382586 37.26955621 26.01171875 37.265625 C25.13964279 37.26967346 24.26756683 37.27372192 23.36906433 37.27789307 C18.33481513 37.23988613 13.76707982 36.68771017 8.88189697 35.4548645 C6.60619199 34.90481451 4.3979644 34.73171718 2.0625 34.625 C-2.60826018 34.22609967 -6.38147822 32.84710662 -10.66015625 30.98828125 C-13.72058069 29.69564789 -16.7889048 28.83767701 -20 28 C-20 18.66891039 -15.59958964 13.06893553 -9.46875 6.3125 C-7.86525441 4.87958904 -6.26478808 3.89628973 -4.375 2.875 C-1.24896602 1.34053973 -1.24896602 1.34053973 0 0 Z " fill="#FB9F40" transform="translate(177,359)"/>
<path d="M0 0 C5.1041279 3.69554687 9.46740818 9.15060469 11.21875 15.265625 C11.57321261 18.28085888 11.68914851 21.22522913 11.70703125 24.26171875 C11.72121094 25.35355469 11.73539063 26.44539063 11.75 27.5703125 C11.51008603 30.95757252 10.72592313 33.66280446 9.51953125 36.82421875 C8.85953125 36.82421875 8.19953125 36.82421875 7.51953125 36.82421875 C7.18953125 38.14421875 6.85953125 39.46421875 6.51953125 40.82421875 C5.85953125 40.82421875 5.19953125 40.82421875 4.51953125 40.82421875 C4.24109375 41.69046875 4.24109375 41.69046875 3.95703125 42.57421875 C1.22741267 46.84666523 -3.37868739 48.43072541 -7.98046875 50.07421875 C-15.30245493 51.64321579 -20.64355007 50.4287592 -27.48046875 47.82421875 C-27.35027344 46.96699219 -27.22007812 46.10976562 -27.0859375 45.2265625 C-26.10137497 38.89094731 -26.10137497 38.89094731 -27.38671875 32.7890625 C-28.25647548 31.70982168 -29.15094903 30.65013223 -30.06640625 29.609375 C-34.88561685 23.52545443 -36.38450822 15.07958152 -36.12890625 7.5 C-35.16702946 3.53080962 -33.18089372 2.03713109 -29.81640625 -0.08984375 C-20.06512479 -4.62304817 -9.67741983 -4.94497734 0 0 Z " fill="#F8C49F" transform="translate(188.48046875,170.17578125)"/>
<path d="M0 0 C3.90666217 1.38890842 7.78607095 2.85743008 11.640625 4.38476562 C26.61319244 9.91759719 42.84158358 9.27224902 58.5625 9.125 C60.46028166 9.11493564 62.35806857 9.10581598 64.25585938 9.09765625 C68.83737299 9.07594981 73.41862578 9.04161684 78 9 C77 12 77 12 75.03125 13.09765625 C69.39313473 15.24675266 63.92653179 16.85292933 58 18 C58.37511719 18.4125 58.75023437 18.825 59.13671875 19.25 C69.42031402 30.85466166 69.42031402 30.85466166 69 38 C68.21238281 37.65066406 67.42476563 37.30132812 66.61328125 36.94140625 C59.42920347 33.94024713 53.484722 32.45491714 45.6796875 32.53125 C43 32 43 32 41.1328125 29.71875 C40 27 40 27 40 23 C38.865625 23.33 37.73125 23.66 36.5625 24 C29.17769025 25.6859212 21.5252141 25.15551533 14 25 C13.74992187 25.76441406 13.49984375 26.52882812 13.2421875 27.31640625 C11.87109302 30.27848771 10.85976659 31.23988074 8.125 32.9375 C7.44695312 33.37964844 6.76890625 33.82179687 6.0703125 34.27734375 C4 35 4 35 1.921875 34.2578125 C0.29473995 33.19289891 -1.29490881 32.07104368 -2.875 30.9375 C-9.57061513 27.08463526 -18.7528944 27.26387758 -26.125 28.875 C-27.4214372 29.23315969 -28.71366438 29.60710251 -30 30 C-31.33195716 30.3387905 -32.66493976 30.67365194 -34 31 C-32.5435664 27.16031141 -30.71785783 25.68993538 -27 24 C-25.00060639 23.95075385 -22.99923733 23.94477245 -21 24 C-20.86464844 23.23816406 -20.72929687 22.47632813 -20.58984375 21.69140625 C-18.71204213 12.68470506 -15.30262299 6.01769034 -7.875 0.375 C-4.36894321 -1.30180977 -3.68839467 -1.01903087 0 0 Z " fill="#F6AB84" transform="translate(191,137)"/>
<path d="M0 0 C4.42190709 4.08176039 6.25571721 7.24260414 7.4375 13.25 C7.5658702 20.15631691 5.2293632 26.02998849 2.4375 32.25 C1.7775 32.25 1.1175 32.25 0.4375 32.25 C0.23125 32.971875 0.025 33.69375 -0.1875 34.4375 C-1.97064713 38.08484641 -4.3816474 39.76893497 -7.5625 42.25 C-8.18125 42.930625 -8.8 43.61125 -9.4375 44.3125 C-13.80806758 48.29742926 -19.61073803 51.12600496 -25.5625 51.25 C-29.3105582 50.55726551 -32.44838171 49.603542 -34.92578125 46.59375 C-39.46449401 38.80366846 -39.49405302 31.28873058 -37.4375 22.6875 C-34.53599427 13.15014319 -28.58908537 6.0710193 -20.5625 0.25 C-14.1194377 -2.96107163 -6.44102927 -3.16401438 0 0 Z " fill="#F2EFEA" transform="translate(96.5625,174.75)"/>
<path d="M0 0 C0.66 0 1.32 0 2 0 C2.83228478 9.65450346 0.10020302 19.64773714 -6 27.3125 C-8.43592179 29.82414992 -10.40293537 30.89420398 -14 31 C-14.04898438 30.39671875 -14.09796875 29.7934375 -14.1484375 29.171875 C-14.26058594 27.97304688 -14.26058594 27.97304688 -14.375 26.75 C-14.47941406 25.56664062 -14.47941406 25.56664062 -14.5859375 24.359375 C-15.01507113 21.914123 -15.78600638 20.15163097 -17 18 C-19.31 18 -21.62 18 -24 18 C-25.03137567 21.54734043 -25.33675809 25.03985116 -25.6484375 28.71484375 C-25.76788219 30.0553695 -25.88768616 31.39586328 -26.0078125 32.73632812 C-26.19148183 34.82204398 -26.37252395 36.90786831 -26.546875 38.99438477 C-27.56939052 51.12368461 -29.45778558 62.64446396 -34 74 C-34.35149746 75.32866039 -34.68946265 76.66117386 -35 78 C-35.66 78 -36.32 78 -37 78 C-37.08507812 78.68191406 -37.17015625 79.36382812 -37.2578125 80.06640625 C-38.1880364 83.74323861 -39.94098649 86.71761013 -41.875 89.9375 C-44.4122386 94.22664144 -46.82095505 98.51171559 -49 103 C-49.66 103 -50.32 103 -51 103 C-51.495 104.98 -51.495 104.98 -52 107 C-52.66 107 -53.32 107 -54 107 C-54.103125 107.680625 -54.20625 108.36125 -54.3125 109.0625 C-55 112 -55 112 -56.5 115.375 C-57.99721735 118.99327526 -58.60425289 122.12167835 -59 126 C-67.33225808 127.94205537 -75.4850773 128.31214057 -84.00732422 128.26074219 C-86.12886895 128.24998037 -88.24957387 128.26071914 -90.37109375 128.2734375 C-99.80504138 128.28461165 -108.1256874 127.89047716 -116.5625 123.375 C-117.83287109 122.70597656 -117.83287109 122.70597656 -119.12890625 122.0234375 C-119.74636719 121.68570313 -120.36382812 121.34796875 -121 121 C-118.45464674 119.72732337 -116.33448716 119.98775539 -113.54150391 120.06542969 C-92.78310445 120.62019962 -73.68895545 114.84438305 -58.37890625 100.46875 C-34.06118766 75.23262824 -30.96718714 39.12419383 -30 6 C-28 9 -28 9 -28 11 C-16.9001552 11.60544608 -9.68504871 7.7205734 -1 1 C-0.67 0.67 -0.34 0.34 0 0 Z " fill="#E88160" transform="translate(316,233)"/>
<path d="M0 0 C3.3 0 6.6 0 10 0 C9.96519531 0.82242188 9.93039063 1.64484375 9.89453125 2.4921875 C9.68650396 11.07083681 10.13959146 18.70938719 15 26 C16.12425455 29.63729413 17.11159821 33.29832588 18 37 C18.66 37 19.32 37 20 37 C20.12375 37.639375 20.2475 38.27875 20.375 38.9375 C20.58125 39.618125 20.7875 40.29875 21 41 C21.66 41.33 22.32 41.66 23 42 C22.57507874 43.29585916 22.13454118 44.5866044 21.6875 45.875 C21.44386719 46.59429687 21.20023438 47.31359375 20.94921875 48.0546875 C20 50 20 50 17 52 C11.73610171 53.36031498 6.46468722 53.22158613 1.0625 53.25 C0.08603516 53.270625 -0.89042969 53.29125 -1.89648438 53.3125 C-7.36529871 53.34216137 -11.29165841 53.11370263 -16 50 C-16.66 49.34 -17.32 48.68 -18 48 C-19.95695581 47.82128198 -19.95695581 47.82128198 -22.17578125 48.015625 C-23.00400391 48.04914063 -23.83222656 48.08265625 -24.68554688 48.1171875 C-26.42602321 48.20518184 -28.16577072 48.30915667 -29.90429688 48.4296875 C-34.51698574 48.58689765 -36.37084699 48.49699131 -40.10546875 45.546875 C-42.79573056 41.65697304 -42.45422518 37.54225177 -42 33 C-40.74445313 33.04640625 -39.48890625 33.0928125 -38.1953125 33.140625 C-28.85937688 33.37921934 -21.48139644 33.32763736 -13 29 C-12.34 29 -11.68 29 -11 29 C-11 28.34 -11 27.68 -11 27 C-9.9171875 26.01 -9.9171875 26.01 -8.8125 25 C-1.70905063 18.05845261 -0.18119468 9.58684592 0 0 Z " fill="#FBAE85" transform="translate(203,189)"/>
<path d="M0 0 C0.99 2.64 1.98 5.28 3 8 C3.81082031 8.02578125 4.62164062 8.0515625 5.45703125 8.078125 C15.83613934 8.60976732 25.53847003 10.19142212 33 18 C39.64243887 26.64317347 42.11709486 34.04115799 41 45 C38.56223644 54.32773003 31.99092433 61.22541206 23.89453125 66.08984375 C17.21551167 69.29852738 7.91080771 69.00255244 0.7421875 67.5390625 C-0.9375 66.875 -0.9375 66.875 -4 65 C-4.66386719 64.5978125 -5.32773438 64.195625 -6.01171875 63.78125 C-13.12683745 59.04660539 -16.96560114 52.3532965 -18.7265625 44.046875 C-19.4256411 38.81377235 -19.27993951 34.11975803 -18 29 C-21.3 29 -24.6 29 -28 29 C-27.94199219 29.75023437 -27.88398438 30.50046875 -27.82421875 31.2734375 C-27.40722063 40.73333782 -29.8368653 46.48123615 -35.1875 54.125 C-35.785625 54.74375 -36.38375 55.3625 -37 56 C-37.66 56 -38.32 56 -39 56 C-39 56.66 -39 57.32 -39 58 C-40.24735567 58.6509259 -41.49801832 59.29551669 -42.75 59.9375 C-43.44609375 60.29714844 -44.1421875 60.65679687 -44.859375 61.02734375 C-51.87438999 64.21482319 -61.34166283 64.13328712 -68.76171875 62.328125 C-70.9375 61.5 -70.9375 61.5 -74 60 C-70.73685588 58.845349 -67.87292235 59.08883738 -64.46606445 59.42114258 C-55.65488221 60.28014283 -48.51371746 60.03985053 -40.9375 54.9375 C-38.94070729 53.14493773 -38.94070729 53.14493773 -38 51 C-37.34 51 -36.68 51 -36 51 C-35.67 49.68 -35.34 48.36 -35 47 C-34.34 47 -33.68 47 -33 47 C-31.43252002 38.66100649 -30.51437214 28.92188149 -34 21 C-35.49998875 19.05719543 -37.06135397 17.25403904 -38.7578125 15.48046875 C-40 14 -40 14 -40 12 C-40.7734375 11.8453125 -40.7734375 11.8453125 -41.5625 11.6875 C-44 11 -44 11 -46.9375 9.4375 C-53.00092783 6.80349479 -60.39882794 6.92281657 -66.6640625 8.796875 C-68.86506646 9.75383324 -70.92493967 10.79637873 -73 12 C-74.010625 12.5775 -75.02125 13.155 -76.0625 13.75 C-76.701875 14.1625 -77.34125 14.575 -78 15 C-78.33 12.69 -78.66 10.38 -79 8 C-78.01 8 -77.02 8 -76 8 C-75.34 6.35 -74.68 4.7 -74 3 C-72.68 3.33 -71.36 3.66 -70 4 C-71.32 5.32 -72.64 6.64 -74 8 C-73.113125 7.525625 -72.22625 7.05125 -71.3125 6.5625 C-64.24353998 3.52471881 -54.35135883 2.87941572 -47 5 C-45.45804539 6.03160857 -43.93852875 7.09720051 -42.4375 8.1875 C-38.98617922 10.72109473 -38.98617922 10.72109473 -34.75 10.6875 C-31.06125537 8.42395216 -27.96144516 5.92289032 -26 2 C-24.81921875 1.93941406 -23.6384375 1.87882813 -22.421875 1.81640625 C-20.8645723 1.73197418 -19.30728121 1.64732751 -17.75 1.5625 C-16.97269531 1.52318359 -16.19539063 1.48386719 -15.39453125 1.44335938 C-14.64042969 1.40146484 -13.88632813 1.35957031 -13.109375 1.31640625 C-12.41811523 1.27974854 -11.72685547 1.24309082 -11.01464844 1.20532227 C-7.20082213 0.81663735 -3.90242711 -0.10840075 0 0 Z M-10 21 C-15.64712257 28.8261753 -16.94899255 35.3335177 -16 45 C-13.48639059 53.41002026 -7.65194341 60.17630288 -0.20703125 64.6953125 C6.15113374 67.28194722 13.84672501 67.04323969 20.47265625 65.37890625 C27.97748611 62.021875 34.43182881 55.19159996 37.37109375 47.546875 C39.47969859 39.00768026 38.57748828 31.64458437 34.484375 23.92578125 C32.82513062 21.77312998 31.40485594 21.167647 29 20 C28.505 18.515 28.505 18.515 28 17 C23.64968162 14.09978775 20.27702425 12.42216194 15 12 C14.33226562 11.93683594 13.66453125 11.87367188 12.9765625 11.80859375 C4.07770908 11.32462102 -3.81207399 14.66816873 -10 21 Z " fill="#FCF4EB" transform="translate(231,160)"/>
<path d="M0 0 C2.97 0 5.94 0 9 0 C9 0.66 9 1.32 9 2 C11.31 2.66 13.62 3.32 16 4 C16 4.66 16 5.32 16 6 C16.87398437 6.12181641 16.87398437 6.12181641 17.765625 6.24609375 C20.68084261 7.22972487 21.80510492 8.70618481 23.75 11.0625 C24.36359375 11.79597656 24.9771875 12.52945312 25.609375 13.28515625 C26.29773438 14.13400391 26.29773438 14.13400391 27 15 C26.52304687 15.36996094 26.04609375 15.73992187 25.5546875 16.12109375 C23.4180801 18.70327506 23.44882921 20.7491743 23.125 24.0625 C22.26234942 30.57224975 20.23558845 35.35298242 17 41 C16.38716306 42.20395918 15.78146299 43.41161846 15.1875 44.625 C14.5996875 45.800625 14.5996875 45.800625 14 47 C13.34 47 12.68 47 12 47 C12 47.66 12 48.32 12 49 C10.35546875 50.5859375 10.35546875 50.5859375 8.1875 52.375 C5.93370282 54.23879585 4.11851087 55.83237917 2.42578125 58.2265625 C1.95527344 58.81179688 1.48476563 59.39703125 1 60 C0.01 60 -0.98 60 -2 60 C-2.2475 60.598125 -2.495 61.19625 -2.75 61.8125 C-6.65949177 68.6541106 -16.55417265 70.70774469 -23.625 72.75 C-28.62950282 73.93442069 -33.44218824 74.3126276 -38.5625 74.375 C-39.25359863 74.38885742 -39.94469727 74.40271484 -40.65673828 74.41699219 C-43.6682326 74.38865924 -45.54117678 74.35574763 -47.96484375 72.4765625 C-48.30644531 71.98929687 -48.64804687 71.50203125 -49 71 C-47.45892578 70.54560547 -47.45892578 70.54560547 -45.88671875 70.08203125 C-38.36460603 67.82148583 -31.19254081 65.42967192 -24.13671875 61.91796875 C-22 61 -22 61 -19 61 C-19 60.34 -19 59.68 -19 59 C-18.071875 58.54625 -17.14375 58.0925 -16.1875 57.625 C-8.49373343 53.17483767 -0.34010407 46.51759407 3.2578125 38.21875 C6.13594074 25.73676225 4.68525797 12.79681025 0 1 C0 0.67 0 0.34 0 0 Z " fill="#FDC976" transform="translate(306,287)"/>
<path d="M0 0 C0.66 0 1.32 0 2 0 C2.83228478 9.65450346 0.10020302 19.64773714 -6 27.3125 C-8.43592179 29.82414992 -10.40293537 30.89420398 -14 31 C-14.04898438 30.39671875 -14.09796875 29.7934375 -14.1484375 29.171875 C-14.22320312 28.37265625 -14.29796875 27.5734375 -14.375 26.75 C-14.47941406 25.56664062 -14.47941406 25.56664062 -14.5859375 24.359375 C-15.01507113 21.914123 -15.78600638 20.15163097 -17 18 C-19.31 18 -21.62 18 -24 18 C-25.03137567 21.54734043 -25.33675809 25.03985116 -25.6484375 28.71484375 C-25.76788219 30.0553695 -25.88768616 31.39586328 -26.0078125 32.73632812 C-26.19148183 34.82204398 -26.37252395 36.90786831 -26.546875 38.99438477 C-27.56939052 51.12368461 -29.45778558 62.64446396 -34 74 C-34.35149746 75.32866039 -34.68946265 76.66117386 -35 78 C-35.66 78 -36.32 78 -37 78 C-37.12375 78.804375 -37.2475 79.60875 -37.375 80.4375 C-37.58125 81.283125 -37.7875 82.12875 -38 83 C-38.99 83.495 -38.99 83.495 -40 84 C-40.99 83.67 -41.98 83.34 -43 83 C-43.66 83.99 -44.32 84.98 -45 86 C-45.66 85.67 -46.32 85.34 -47 85 C-46.61328125 84.26136719 -46.2265625 83.52273438 -45.828125 82.76171875 C-33.19024049 58.14286947 -30.79647984 33.27781551 -30 6 C-28 9 -28 9 -28 11 C-16.9001552 11.60544608 -9.68504871 7.7205734 -1 1 C-0.67 0.67 -0.34 0.34 0 0 Z " fill="#DF8064" transform="translate(316,233)"/>
<path d="M0 0 C3.375 1.8125 3.375 1.8125 5 5 C5.93881931 11.30350105 5.53740159 16.54650587 2 22 C1.34 22 0.68 22 0 22 C-0.24621094 22.58523437 -0.49242187 23.17046875 -0.74609375 23.7734375 C-3.4082295 28.50059445 -8.37515207 32.02893348 -13.41796875 33.89453125 C-17.27707004 34.79304897 -21.02909882 35.25618717 -25 35 C-24.67 34.01 -24.34 33.02 -24 32 C-23.01 32 -22.02 32 -21 32 C-20.67 31.01 -20.34 30.02 -20 29 C-19.34 29 -18.68 29 -18 29 C-18.30871122 27.20767663 -18.62209064 25.41615679 -18.9375 23.625 C-19.11152344 22.62726563 -19.28554688 21.62953125 -19.46484375 20.6015625 C-19.87712062 18.03090344 -19.87712062 18.03090344 -21 16 C-21.50872093 9.89534886 -21.06705978 6.88047174 -17 2 C-11.89379323 -1.40413785 -5.95084523 -0.63957682 0 0 Z " fill="#EC8360" transform="translate(320,192)"/>
<path d="M0 0 C0.17015625 0.55429688 0.3403125 1.10859375 0.515625 1.6796875 C1.90825986 6.25122977 1.90825986 6.25122977 5.1875 9.5 C5.785625 9.665 6.38375 9.83 7 10 C5.824375 10.2475 4.64875 10.495 3.4375 10.75 C-5.52753909 13.07017737 -9.87313746 17.4979808 -15 25 C-15.33 25.66 -15.66 26.32 -16 27 C-20.50374041 27.22419791 -24.63204726 27.19270554 -29 26 C-31.61184914 22.95462672 -32.67512347 19.73826664 -34 16 C-34.66 15.34 -35.32 14.68 -36 14 C-36 13.01 -36 12.02 -36 11 C-34.27473958 10.12109375 -32.54947917 9.2421875 -30.82421875 8.36328125 C-28.77732624 7.0587909 -28.77732624 7.0587909 -27.796875 4.40234375 C-26 2 -26 2 -22.12890625 1.328125 C-20.60738286 1.27771708 -19.08485602 1.25255643 -17.5625 1.25 C-16.04289717 1.2166585 -14.52335698 1.18029734 -13.00390625 1.140625 C-11.99565796 1.13337402 -11.99565796 1.13337402 -10.96704102 1.12597656 C-7.18792532 0.88394805 -3.86383441 -0.10732873 0 0 Z " fill="#FAC5A0" transform="translate(231,160)"/>
<path d="M0 0 C1.08667969 0.02707031 2.17335938 0.05414063 3.29296875 0.08203125 C4.54013672 0.13423828 4.54013672 0.13423828 5.8125 0.1875 C5.42681269 2.6319236 5.14840575 3.88173964 3.2890625 5.57421875 C2.67804688 6.00347656 2.06703125 6.43273437 1.4375 6.875 C-2.82304098 10.30613239 -3.95910281 13.99043496 -5.1875 19.1875 C-5.36925781 19.86941406 -5.55101562 20.55132812 -5.73828125 21.25390625 C-7.49147201 28.8002491 -5.14402607 35.51598815 -2.96484375 42.69921875 C-1.85062721 47.69919549 -2.74110226 50.78398407 -5.1875 55.1875 C-5.35185547 54.33478516 -5.35185547 54.33478516 -5.51953125 53.46484375 C-7.23800723 45.09600543 -9.74705112 36.14779925 -17.1875 31.1875 C-17.62097158 29.28689383 -18.05188381 27.38563685 -18.46484375 25.48046875 C-20.31830239 19.59949458 -24.61172066 14.2353048 -29.1875 10.1875 C-26.08164903 8.88504637 -22.94386646 7.75032381 -19.75 6.6875 C-18.58791016 6.30078125 -18.58791016 6.30078125 -17.40234375 5.90625 C-15.54816056 5.30453976 -13.68155403 4.74129379 -11.8125 4.1875 C-9.17223654 3.4296633 -9.17223654 3.4296633 -7.91015625 1.63671875 C-5.34922008 -0.51771962 -3.2801622 -0.10581168 0 0 Z " fill="#F8C5A1" transform="translate(277.1875,144.8125)"/>
<path d="M0 0 C8 6 8 6 9.75 7.625 C13.04418648 9.63811396 16.48607813 9.82507289 20.25 10.1875 C20.99507812 10.26935547 21.74015625 10.35121094 22.5078125 10.43554688 C24.33735356 10.63491994 26.16855151 10.81898474 28 11 C28 13.64 28 16.28 28 19 C28.66 19 29.32 19 30 19 C30.20625 20.11375 30.4125 21.2275 30.625 22.375 C31.61628301 26.26599195 31.61628301 26.26599195 35.125 27.4375 C36.07375 27.623125 37.0225 27.80875 38 28 C38 29.33333333 38 30.66666667 38 32 C25.02008688 32.86404747 15.93465243 29.70990035 5 23 C5.08378906 22.32453125 5.16757813 21.6490625 5.25390625 20.953125 C5.35574219 20.06109375 5.45757812 19.1690625 5.5625 18.25 C5.66691406 17.36828125 5.77132812 16.4865625 5.87890625 15.578125 C5.99456676 13.11567549 5.73638695 11.33461936 5 9 C4.34 9 3.68 9 3 9 C0.56839395 5.63316085 0 4.26649636 0 0 Z " fill="#F6C4A0" transform="translate(218,217)"/>
<path d="M0 0 C0.05831395 4.04160556 0.09370212 8.08310205 0.125 12.125 C0.14175781 13.26710937 0.15851563 14.40921875 0.17578125 15.5859375 C0.18222656 16.69453125 0.18867188 17.803125 0.1953125 18.9453125 C0.20578613 19.96125488 0.21625977 20.97719727 0.22705078 22.02392578 C-0.02158182 25.28288429 -0.85121636 27.95115207 -2 31 C-2.66 31 -3.32 31 -4 31 C-4.495 33.475 -4.495 33.475 -5 36 C-8.00676674 34.94339216 -8.95343377 34.07481132 -10.66796875 31.3203125 C-11.16941406 30.26585937 -11.67085937 29.21140625 -12.1875 28.125 C-12.69667969 27.07570312 -13.20585937 26.02640625 -13.73046875 24.9453125 C-16.35507373 18.85622894 -17.2006881 12.57311006 -16 6 C-11.73523928 -0.0038969 -6.84431801 -0.25881875 0 0 Z " fill="#FCAE85" transform="translate(169,169)"/>
<path d="M0 0 C2.74626349 3.24558412 3.13555303 5.20042454 3.0625 9.4375 C0.5417556 14.79408184 -2.64248304 17.16820702 -7.9375 19.4375 C-9.9375 18.9375 -9.9375 18.9375 -11.9375 17.4375 C-16.25029299 14.88177082 -20.09184211 12.85574133 -24.9375 11.4375 C-23.54150608 6.1637452 -20.20001087 3.51804825 -15.9375 0.4375 C-10.78898579 -2.46679007 -5.20497331 -2.76860282 0 0 Z " fill="#34486F" transform="translate(202.9375,152.5625)"/>
<path d="M0 0 C2.475 0.495 2.475 0.495 5 1 C5.33 1.99 5.66 2.98 6 4 C5.67 4.33 5.34 4.66 5 5 C4.9175 6.19625 4.835 7.3925 4.75 8.625 C4.20604105 13.56521735 2.19871363 16.25516453 -1 20 C-1.66 20 -2.32 20 -3 20 C-3 20.99 -3 21.98 -3 23 C-6.96 23.99 -10.92 24.98 -15 26 C-15.66 25.01 -16.32 24.02 -17 23 C-19.05925139 22.27617533 -19.05925139 22.27617533 -21 22 C-21.33 19.69 -21.66 17.38 -22 15 C-21.23816406 14.731875 -20.47632813 14.46375 -19.69140625 14.1875 C-12.21898171 11.35152364 -3.77632621 7.55265241 0 0 Z " fill="#F4AE88" transform="translate(267,214)"/>
<path d="M0 0 C6.82187553 2.47948937 11.03735274 9.73251521 14 16 C14.19140625 18.84375 14.19140625 18.84375 14 21 C13.21238281 20.65066406 12.42476563 20.30132812 11.61328125 19.94140625 C4.42920347 16.94024713 -1.515278 15.45491714 -9.3203125 15.53125 C-12 15 -12 15 -13.875 12.6953125 C-15.39616145 9.0508632 -14.98095595 6.78368725 -14 3 C-10.58212804 -1.68052529 -5.22600798 -0.74132978 0 0 Z " fill="#364970" transform="translate(246,154)"/>
<path d="M0 0 C0.66 0.33 1.32 0.66 2 1 C1.4946875 1.56847656 0.989375 2.13695312 0.46875 2.72265625 C-4.0225162 7.73954781 -4.0225162 7.73954781 -5.4375 14.0625 C-5.293125 15.031875 -5.14875 16.00125 -5 17 C-11.11286494 19.87119414 -17.38130672 19.87670042 -24 19 C-27.19332752 17.37867734 -27.42658677 16.44940593 -29 13 C-29.15869141 10.68334961 -29.15869141 10.68334961 -29.1015625 8.27734375 C-29.08689941 7.47417725 -29.07223633 6.67101074 -29.05712891 5.84350586 C-29.03827637 5.23514893 -29.01942383 4.62679199 -29 4 C-27.11667969 4.06960937 -27.11667969 4.06960937 -25.1953125 4.140625 C-13.08077823 4.56598926 -13.08077823 4.56598926 -1.71484375 0.77734375 C-1.14894531 0.52082031 -0.58304688 0.26429688 0 0 Z " fill="#F7C5A1" transform="translate(190,218)"/>
<path d="M0 0 C2.86130829 0.31792314 4.82885783 0.89823979 7.3125 2.375 C10.05538172 6.64170489 9.61819513 11.075756 9 16 C7.5 19.6875 7.5 19.6875 6 22 C5.34 22 4.68 22 4 22 C3.7628125 22.58394531 3.525625 23.16789062 3.28125 23.76953125 C1.72773553 26.4739726 -0.01012231 27.82413374 -2.5 29.6875 C-3.2940625 30.28949219 -4.088125 30.89148438 -4.90625 31.51171875 C-8.46670266 34.0425629 -10.65412771 34.09447548 -15 34 C-14.38125 33.443125 -13.7625 32.88625 -13.125 32.3125 C-10.0675688 28.98529546 -9.22123162 25.82593139 -8.0625 21.5 C-6.56784424 16.57642808 -4.61302303 13.51435859 -0.875 10.0625 C2.05517554 7.27012975 2.80396809 5.11667012 3 1 C2.01 0.67 1.02 0.34 0 0 Z " fill="#F3946E" transform="translate(316,192)"/>
<path d="M0 0 C0.66 0 1.32 0 2 0 C2.83302529 9.66309337 0.11475398 19.6891713 -6.0625 27.3125 C-8.81869959 29.83412941 -9.57944644 30.37473752 -13 31 C-14.91329124 13.06657399 -14.91329124 13.06657399 -11.83837891 8.13818359 C-8.70842827 4.95228548 -5.00228774 2.95233548 -1 1 C-0.67 0.67 -0.34 0.34 0 0 Z " fill="#374A6E" transform="translate(316,233)"/>
<path d="M0 0 C2.6875 -0.4375 2.6875 -0.4375 6 0 C10.40544571 4.2139046 11.33923992 7.24015346 11.5 13.3125 C11.46875 16.42578125 11.46875 16.42578125 11 19 C7.2794164 21.48038907 5.40203429 21.46337203 1 21 C-1.4375 19.6875 -1.4375 19.6875 -3 17 C-3.86428 10.70450591 -3.53082507 5.44335532 0 0 Z " fill="#FDAF86" transform="translate(169,200)"/>
<path d="M0 0 C5.51768489 1.63022508 5.51768489 1.63022508 7.875 3.4375 C16.47431861 9.76052839 27.81062067 9.4250784 38 9 C40.00179375 8.67761374 42.00201907 8.34522936 44 8 C46.67810075 7.88803927 49.31732686 7.95374701 52 8 C52 8.66 52 9.32 52 10 C45.61496466 14.7887765 37.83701863 15.39152989 30.125 15.375 C29.33778564 15.37338867 28.55057129 15.37177734 27.73950195 15.37011719 C19.00966639 15.18653957 12.59124831 12.81580733 6 7 C5.278125 6.690625 4.55625 6.38125 3.8125 6.0625 C1.25733619 4.56464535 0.86809653 2.74897234 0 0 Z " fill="#F29773" transform="translate(185,259)"/>
<path d="M0 0 C1.09898702 3.29696105 0.87124444 4.40494903 0.0625 7.6875 C-0.13214844 8.49574219 -0.32679688 9.30398437 -0.52734375 10.13671875 C-0.68332031 10.75160156 -0.83929688 11.36648437 -1 12 C-1.66 12 -2.32 12 -3 12 C-3 15.63 -3 19.26 -3 23 C-4.32 23 -5.64 23 -7 23 C-7.33 19.37 -7.66 15.74 -8 12 C-8.99 12 -9.98 12 -11 12 C-11 15.3 -11 18.6 -11 22 C-12.32 22.33 -13.64 22.66 -15 23 C-15.33 22.01 -15.66 21.02 -16 20 C-16.433125 20.495 -16.86625 20.99 -17.3125 21.5 C-19 23 -19 23 -22 23 C-22 23.66 -22 24.32 -22 25 C-24.70879335 26.35439668 -27.00933268 26.06501451 -30 26 C-29.01 25.34 -28.02 24.68 -27 24 C-25.989375 23.29875 -24.97875 22.5975 -23.9375 21.875 C-21 20 -21 20 -19 20 C-17.36457914 16.79029551 -15.85968003 13.53192428 -14.375 10.25 C-13.92898438 9.26515625 -13.48296875 8.2803125 -13.0234375 7.265625 C-12.68570312 6.51796875 -12.34796875 5.7703125 -12 5 C-11.67 5.66 -11.34 6.32 -11 7 C-7.35526801 7.89093449 -4.57257469 8.23666047 -1 7 C-0.67 4.69 -0.34 2.38 0 0 Z " fill="#3E5277" transform="translate(287,223)"/>
<path d="M0 0 C-0.33 0.515625 -0.66 1.03125 -1 1.5625 C-2.32010877 4.78026512 -2.13242105 7.5570528 -2 11 C1.02559518 11.11168808 1.02559518 11.11168808 4 10.3125 C7 10 7 10 8.8125 11.3125 C11.15550838 14.64203823 11.08764666 16.96825368 11 21 C4.92255186 21.32429071 0.24800177 21.49866785 -5 18 C-7.375 15.8125 -7.375 15.8125 -9 14 C-8.34 14 -7.68 14 -7 14 C-7.28875 12.989375 -7.5775 11.97875 -7.875 10.9375 C-8.030878 6.02734303 -6.74759209 4.74858527 -3.54296875 1.28515625 C-2 0 -2 0 0 0 Z M9 10 C9.66 10 10.32 10 11 10 C10.67 10.66 10.34 11.32 10 12 C9.67 11.34 9.34 10.68 9 10 Z " fill="#F1AB86" transform="translate(192,221)"/>
<path d="M0 0 C0.79075928 0.00523682 1.58151855 0.01047363 2.39624023 0.01586914 C3.67724609 0.02070313 3.67724609 0.02070313 4.98413086 0.02563477 C5.88196289 0.03401367 6.77979492 0.04239258 7.70483398 0.05102539 C8.6065332 0.05553711 9.50823242 0.06004883 10.43725586 0.06469727 C12.67234712 0.07652315 14.90730835 0.09300319 17.14233398 0.11352539 C18.45456895 4.05023027 17.38529654 6.23840683 16.14233398 10.11352539 C15.32120117 9.95883789 14.50006836 9.80415039 13.65405273 9.64477539 C9.04856875 8.94806146 4.44628373 8.73550027 -0.19946289 8.50805664 C-3.29748263 8.33902076 -5.89770768 8.10017817 -8.85766602 7.11352539 C-8.85766602 6.12352539 -8.85766602 5.13352539 -8.85766602 4.11352539 C-7.88829102 3.63915039 -6.91891602 3.16477539 -5.92016602 2.67602539 C-0.76703056 0.04687465 -0.76703056 0.04687465 0 0 Z " fill="#243A62" transform="translate(307.857666015625,172.886474609375)"/>
<path d="M0 0 C0.38868812 3.32740588 0.2630558 4.64282868 -1.7578125 7.38671875 C-2.53898437 8.14597656 -3.32015625 8.90523437 -4.125 9.6875 C-4.89070313 10.45449219 -5.65640625 11.22148437 -6.4453125 12.01171875 C-10.65399457 15.28728324 -14.72198821 16.31047128 -20 16 C-19.75676856 11.86506549 -19.46288153 9.56868302 -16.8125 6.3125 C-10.81066477 1.3776577 -7.73162461 -0.53321549 0 0 Z " fill="#FAAD83" transform="translate(265,209)"/>
<path d="M0 0 C1.32 0 2.64 0 4 0 C4.226875 0.9075 4.45375 1.815 4.6875 2.75 C6.52332683 7.29585692 8.72521338 9.01533088 13.2109375 10.95703125 C17.43212698 12.54789996 21.70978732 13.92056837 26.02734375 15.22265625 C26.72561279 15.4347876 27.42388184 15.64691895 28.14331055 15.86547852 C29.51059112 16.27729474 30.88046027 16.68064742 32.25317383 17.07397461 C36.94612426 18.47533767 40.81886262 20.44365694 45 23 C45 23.99 45 24.98 45 26 C41.48318949 25.2373182 38.27361709 23.96268972 34.9375 22.625 C30.76155377 20.9947928 26.65300542 19.55663316 22.3125 18.4375 C12.77207507 15.94445465 5.67068183 13.50602275 0 5 C-0.125 2.3125 -0.125 2.3125 0 0 Z " fill="#405071" transform="translate(273,89)"/>
<path d="M0 0 C0.66 0 1.32 0 2 0 C2.17015625 0.62648438 2.3403125 1.25296875 2.515625 1.8984375 C2.75796875 2.71570313 3.0003125 3.53296875 3.25 4.375 C3.59804688 5.59316406 3.59804688 5.59316406 3.953125 6.8359375 C5.29143668 9.60244746 6.14639634 9.91923316 9 11 C10.12148438 11.45117188 11.24296875 11.90234375 12.3984375 12.3671875 C13.72251219 12.87358917 15.04812027 13.37599437 16.375 13.875 C17.07818359 14.14038574 17.78136719 14.40577148 18.50585938 14.67919922 C23.12613482 16.39052766 27.74615647 17.83129744 32.5 19.125 C37.75761452 20.55670739 42.25086765 22.34048588 47 25 C46.01 25.495 46.01 25.495 45 26 C45 26.99 45 27.98 45 29 C42.01532236 27.88074588 39.19549243 26.59908452 36.375 25.125 C29.44045019 21.631753 22.33425429 19.24613436 14.75 17.625 C9.26801122 16.31501827 5.6004932 14.37598404 2 10 C0.07835479 6.57445855 -0.22270002 3.89725029 0 0 Z M48 21 C48.33 21.99 48.66 22.98 49 24 C48.01 24.495 48.01 24.495 47 25 C47.33 23.68 47.66 22.36 48 21 Z " fill="#E1E5E8" transform="translate(271,90)"/>
<path d="M0 0 C0.02692484 2.29160319 0.04636124 4.58329546 0.0625 6.875 C0.07410156 8.15117187 0.08570313 9.42734375 0.09765625 10.7421875 C0 14 0 14 -1 16 C-2.65 16 -4.3 16 -6 16 C-5.67 16.33 -5.34 16.66 -5 17 C-3.35 16.67 -1.7 16.34 0 16 C0.33 10.72 0.66 5.44 1 0 C1.66 0 2.32 0 3 0 C3.08112454 2.58396679 3.14054748 5.16537568 3.1875 7.75 C3.22520508 8.84441406 3.22520508 8.84441406 3.26367188 9.9609375 C3.30813932 13.22188355 3.22285932 15.58123484 1.67578125 18.48828125 C0 20 0 20 -3 20.4375 C-6 20 -6 20 -7.875 18.9375 C-9.75030531 15.70780753 -9.53573573 13.69062389 -9 10 C-3.72580645 0 -3.72580645 0 0 0 Z " fill="#364B6A" transform="translate(154,225)"/>
<path d="M0 0 C2.82353873 0.39215816 4.59607301 0.65740683 6.80078125 2.52734375 C9.66848842 4.44763789 11.51575575 4.33629872 14.9375 4.25 C16.46697266 4.22679687 16.46697266 4.22679687 18.02734375 4.203125 C20.77210441 4.01557237 23.32138975 3.61169 26 3 C25.8125 4.8125 25.8125 4.8125 25 7 C19.63723393 10.95252168 14.4236088 10.79020584 8 10 C4.38845738 8.67369211 1.72896797 6.72896797 -1 4 C-0.625 1.875 -0.625 1.875 0 0 Z " fill="#3B4B6C" transform="translate(226,190)"/>
<path d="M0 0 C2.42797311 0 4.62907005 -0.50085685 7 -1 C8.11623524 1.73985012 8.0708004 2.81414895 7 5.625 C4.28583411 8.84807199 2.09712731 9.23612881 -2 10 C-5.4375 10.125 -5.4375 10.125 -8 10 C-8.48695652 2.57391304 -8.48695652 2.57391304 -6.25 -0.0625 C-3.60607414 -1.16413578 -2.63828852 -0.96737246 0 0 Z " fill="#F1AB85" transform="translate(217,232)"/>
<path d="M0 0 C2.3431213 0.25561323 4.67843403 0.59270772 7 1 C8.60031344 4.20062687 7.03173691 6.72271806 6 10 C6.66 10.33 7.32 10.66 8 11 C7.38253906 10.97679687 6.76507813 10.95359375 6.12890625 10.9296875 C0.10728556 10.8013729 -5.19168107 11.4518683 -11 13 C-12.33306156 13.33441856 -13.66631561 13.66807406 -15 14 C-13.5435664 10.16031141 -11.71785783 8.68993538 -8 7 C-4.6875 6.8125 -4.6875 6.8125 -2 7 C-1.34 4.69 -0.68 2.38 0 0 Z " fill="#F1BF9D" transform="translate(172,154)"/>
<path d="M0 0 C2.84816442 0.40688063 3.83062371 0.80340252 5.75 3.03125 C8.71408465 5.62482407 10.37615164 5.41842819 14.25 5.25 C15.32765625 5.21390625 16.4053125 5.1778125 17.515625 5.140625 C18.33546875 5.09421875 19.1553125 5.0478125 20 5 C19.1953125 8.84375 19.1953125 8.84375 17.4375 10.25 C13.91558095 11.3336674 10.61816739 11.57751518 7 11 C3.24787724 8.98497111 1.36355905 7.54533858 -1 4 C-0.625 1.8125 -0.625 1.8125 0 0 Z " fill="#3D4969" transform="translate(177,183)"/>
<path d="M0 0 C7.94714074 -0.27884704 13.91859176 1.20021997 21 5 C20.67 5.99 20.34 6.98 20 8 C12.69529668 8.57973836 7.92346908 7.44573261 2 3 C1.34 2.01 0.68 1.02 0 0 Z " fill="#3F4F70" transform="translate(238,172)"/>
<path d="M0 0 C3.3 0 6.6 0 10 0 C9.67 2.97 9.34 5.94 9 9 C8.2575 9.144375 7.515 9.28875 6.75 9.4375 C4.48735322 9.90031411 2.2405393 10.43986518 0 11 C0 7.37 0 3.74 0 0 Z " fill="#FAC6A0" transform="translate(203,189)"/>
<path d="M0 0 C0.99 0 1.98 0 3 0 C3.06058594 1.31355469 3.12117187 2.62710938 3.18359375 3.98046875 C3.26803256 5.71615541 3.35267888 7.45183198 3.4375 9.1875 C3.47681641 10.05181641 3.51613281 10.91613281 3.55664062 11.80664062 C3.76347016 15.95914122 4.00103531 19.94537862 5 24 C4.01 24.33 3.02 24.66 2 25 C-1.46519479 16.64640541 -1.96883864 8.82801843 0 0 Z " fill="#314261" transform="translate(158,87)"/>
<path d="M0 0 C0.66 0.33 1.32 0.66 2 1 C1.67 2.258125 1.34 3.51625 1 4.8125 C-0.699057 13.08044639 -0.15515597 21.6043379 0 30 C-0.66 30.33 -1.32 30.66 -2 31 C-3.98284735 26.79960092 -4.40782412 23.0544445 -4.6875 18.4375 C-4.77386719 17.13683594 -4.86023438 15.83617188 -4.94921875 14.49609375 C-4.99030633 11.66737209 -4.89472715 9.64381781 -4 7 C-3.34 7 -2.68 7 -2 7 C-1.34 4.69 -0.68 2.38 0 0 Z " fill="#DFE1E2" transform="translate(165,80)"/>
<path d="M0 0 C1 4 1 4 1 4 Z M-2 4 C-1.34 4.33 -0.68 4.66 0 5 C0.33 5.99 0.66 6.98 1 8 C0.67 8.66 0.34 9.32 0 10 C-0.09632897 11.81041793 -0.12981533 13.62452753 -0.125 15.4375 C-0.12886719 16.88962891 -0.12886719 16.88962891 -0.1328125 18.37109375 C-0.11213973 21.11017829 -0.11213973 21.11017829 1 24 C-4.875 23.125 -4.875 23.125 -6 22 C-5.54141875 15.69450785 -3.95347773 9.99557945 -2 4 Z " fill="#F8C49E" transform="translate(167,196)"/>
<path d="M0 0 C-0.875 7.625 -0.875 7.625 -2 11 C-4.0625 12.1875 -4.0625 12.1875 -6 13 C-8 11 -8 11 -8.375 7.625 C-8 4 -8 4 -6.25 1.5625 C-4 0 -4 0 0 0 Z " fill="#FDC299" transform="translate(197,221)"/>
<path d="M0 0 C1.33573379 3.66893113 0.66610265 5.94051356 -0.625 9.5625 C-0.94726562 10.51253906 -1.26953125 11.46257812 -1.6015625 12.44140625 C-3.28509187 15.52160664 -4.9460774 16.37578002 -8 18 C-10.41560581 21.43759289 -12.15794376 25.22817056 -14 29 C-15.47177418 25.17338712 -14.57016757 22.68989378 -13 19 C-11.5 17.125 -11.5 17.125 -10 16 C-9.34 16 -8.68 16 -8 16 C-7.73445313 15.46890625 -7.46890625 14.9378125 -7.1953125 14.390625 C-4.796875 9.59375 -2.3984375 4.796875 0 0 Z " fill="#F2E6DA" transform="translate(333,210)"/>
<path d="M0 0 C2.28515625 1.16796875 2.28515625 1.16796875 4.28515625 4.16796875 C3.29515625 4.49796875 2.30515625 4.82796875 1.28515625 5.16796875 C0.55683594 4.71550781 -0.17148438 4.26304687 -0.921875 3.796875 C-4.3499858 1.79754325 -7.53155087 1.46213735 -11.40234375 1.10546875 C-18.45653679 0.42627571 -18.45653679 0.42627571 -20.71484375 -1.83203125 C-13.37573541 -4.2784007 -7.08693632 -2.60153359 0 0 Z " fill="#ECF1F6" transform="translate(255.71484375,171.83203125)"/>
<path d="M0 0 C9.80843419 0.61970499 9.80843419 0.61970499 14 4 C14 4.66 14 5.32 14 6 C12.41986783 6.25028811 10.83557694 6.47440946 9.25 6.6875 C8.36828125 6.81511719 7.4865625 6.94273437 6.578125 7.07421875 C3.37546108 6.98202085 2.18760949 6.31539042 0 4 C0 2.68 0 1.36 0 0 Z " fill="#3A4B6E" transform="translate(176,168)"/>
<path d="M0 0 C6.39946188 1.24433981 12.28563131 5.1223581 16.625 9.875 C17.305625 10.926875 17.305625 10.926875 18 12 C17.67 12.66 17.34 13.32 17 14 C13.26077165 12.03198508 11.85126866 10.70253733 10 7 C8.23167185 6.36856864 8.23167185 6.36856864 6 6 C3.63569314 5.06444632 1.32609918 4.02885156 -1 3 C-0.67 2.01 -0.34 1.02 0 0 Z " fill="#F6F2EC" transform="translate(181,165)"/>
<path d="M0 0 C1.32 0 2.64 0 4 0 C2.45895157 3.78336048 0.14190393 5.97944825 -2.875 8.6875 C-3.73867187 9.47511719 -4.60234375 10.26273437 -5.4921875 11.07421875 C-7.81278098 12.85623213 -9.15010688 13.60896815 -12 14 C-12.33 13.34 -12.66 12.68 -13 12 C-11.68 11.67 -10.36 11.34 -9 11 C-8.86078125 10.09121094 -8.86078125 10.09121094 -8.71875 9.1640625 C-7.82736467 6.48021754 -6.85522755 5.87114865 -4.5 4.375 C-1.73725876 2.66531892 -1.73725876 2.66531892 0 0 Z " fill="#343C5E" transform="translate(257,329)"/>
<path d="M0 0 C0.66 0 1.32 0 2 0 C2.08112454 2.58396679 2.14054748 5.16537568 2.1875 7.75 C2.22520508 8.84441406 2.22520508 8.84441406 2.26367188 9.9609375 C2.30813932 13.22188355 2.22285932 15.58123484 0.67578125 18.48828125 C-1 20 -1 20 -4 20.4375 C-7 20 -7 20 -8.875 18.875 C-10.4682099 16.21965017 -10.20214032 14.03210482 -10 11 C-8 14.75 -8 14.75 -8 17 C-6.00045254 17.04254356 -3.99958364 17.04080783 -2 17 C0.05922402 14.94077598 -0.58572421 10.78291876 -0.4375 7.9375 C-0.39431641 7.17888672 -0.35113281 6.42027344 -0.30664062 5.63867188 C-0.20026367 3.75934562 -0.09960066 1.87969756 0 0 Z " fill="#253A60" transform="translate(155,225)"/>
<path d="M0 0 C0.33 0.66 0.66 1.32 1 2 C6.28 2 11.56 2 17 2 C17 2.33 17 2.66 17 3 C15.62328125 3.03867188 15.62328125 3.03867188 14.21875 3.078125 C6.71052963 3.42514359 1.42522467 4.07347381 -5 8 C-6.32765616 8.67790217 -7.65971734 9.34741696 -9 10 C-9 9.01 -9 8.02 -9 7 C-8.34 7 -7.68 7 -7 7 C-6.773125 6.21625 -6.54625 5.4325 -6.3125 4.625 C-5 2 -5 2 -2.375 0.6875 C-1.59125 0.460625 -0.8075 0.23375 0 0 Z " fill="#434862" transform="translate(301,179)"/>
<path d="M0 0 C-0.30388164 2.93752254 -0.80669656 3.84080893 -3.125 5.75 C-6.64656468 7.28111508 -9.19615057 7.35885372 -13 7 C-13.66 6.34 -14.32 5.68 -15 5 C-12.81403638 2.81403638 -11.92654486 2.57768169 -9 1.9375 C-0.2892562 0 -0.2892562 0 0 0 Z " fill="#34476B" transform="translate(252,193)"/>
<path d="M0 0 C1.32 0 2.64 0 4 0 C4.3403125 1.3303125 4.3403125 1.3303125 4.6875 2.6875 C6.17188513 6.43380532 8.02403485 8.33729434 11 11 C9.02 11.99 9.02 11.99 7 13 C0.05769231 6.24038462 0.05769231 6.24038462 -0.125 2.3125 C-0.08375 1.549375 -0.0425 0.78625 0 0 Z " fill="#455679" transform="translate(273,89)"/>
<path d="M0 0 C1.32 0.33 2.64 0.66 4 1 C4 6.61 4 12.22 4 18 C3.67 18 3.34 18 3 18 C3 12.72 3 7.44 3 2 C2.34 2 1.68 2 1 2 C1.02320313 3.13179687 1.04640625 4.26359375 1.0703125 5.4296875 C1.08906901 6.91145175 1.10726934 8.39322312 1.125 9.875 C1.14175781 10.62136719 1.15851563 11.36773437 1.17578125 12.13671875 C1.1933959 14.09194461 1.10320189 16.04742021 1 18 C0.34 18.66 -0.32 19.32 -1 20 C-4.125 19.625 -4.125 19.625 -7 19 C-6.67 18.34 -6.34 17.68 -6 17 C-4.35 17.33 -2.7 17.66 -1 18 C-1.01160156 16.78441406 -1.02320313 15.56882813 -1.03515625 14.31640625 C-1.04453278 12.73177236 -1.05363313 11.14713682 -1.0625 9.5625 C-1.07087891 8.76005859 -1.07925781 7.95761719 -1.08789062 7.13085938 C-1.0965143 5.08704779 -1.0522815 3.04316098 -1 1 C-0.67 0.67 -0.34 0.34 0 0 Z " fill="#405578" transform="translate(154,223)"/>
<path d="M0 0 C0.66 0.99 1.32 1.98 2 3 C1.34 3 0.68 3 0 3 C0 3.99 0 4.98 0 6 C-0.60328125 6.13277344 -1.2065625 6.26554688 -1.828125 6.40234375 C-2.62734375 6.57894531 -3.4265625 6.75554687 -4.25 6.9375 C-5.43335938 7.19853516 -5.43335938 7.19853516 -6.640625 7.46484375 C-8.76878703 7.947556 -10.88532842 8.46163178 -13 9 C-11.5435664 5.16031141 -9.71785783 3.68993538 -6 2 C-2.6875 1.8125 -2.6875 1.8125 0 2 C0 1.34 0 0.68 0 0 Z " fill="#F2B594" transform="translate(170,159)"/>
<path d="M0 0 C2.015625 1.17578125 2.015625 1.17578125 4 3 C4.171875 5.48046875 4.171875 5.48046875 3.75 8.1875 C3.62109375 9.08855469 3.4921875 9.98960937 3.359375 10.91796875 C3.24078125 11.60503906 3.1221875 12.29210937 3 13 C1.68 13 0.36 13 -1 13 C-1.02696365 11.20841511 -1.04637917 9.41671527 -1.0625 7.625 C-1.07410156 6.62726563 -1.08570313 5.62953125 -1.09765625 4.6015625 C-1 2 -1 2 0 0 Z " fill="#3B4D6E" transform="translate(162,233)"/>
<path d="M0 0 C0 3.52032428 -0.70351351 4.4385343 -3 7 C-3.66 7 -4.32 7 -5 7 C-5 9.97 -5 12.94 -5 16 C-4.34 16 -3.68 16 -3 16 C-3.33 18.97 -3.66 21.94 -4 25 C-7.31497883 18.37004233 -8.03710163 12.36342157 -7 5 C-5.16859504 2.60382045 -3.86852302 2.17082572 -1 1 C-0.67 0.67 -0.34 0.34 0 0 Z " fill="#F5E4D3" transform="translate(310,259)"/>
<path d="M0 0 C-0.33 0.99 -0.66 1.98 -1 3 C-3.31 3.33 -5.62 3.66 -8 4 C-8 3.67 -8 3.34 -8 3 C-15.92 2.67 -23.84 2.34 -32 2 C-32 1.67 -32 1.34 -32 1 C-28.16678585 0.8305164 -24.33341274 0.6649259 -20.5 0.5 C-18.88351563 0.42845703 -18.88351563 0.42845703 -17.234375 0.35546875 C-11.4831177 0.10998826 -5.75643239 -0.05588769 0 0 Z " fill="#DEA48D" transform="translate(269,146)"/>
<path d="M0 0 C0.66 0 1.32 0 2 0 C2.17015625 0.62648438 2.3403125 1.25296875 2.515625 1.8984375 C2.75796875 2.71570313 3.0003125 3.53296875 3.25 4.375 C3.59804688 5.59316406 3.59804688 5.59316406 3.953125 6.8359375 C5.2214892 9.45785454 6.32423308 9.99382318 9 11 C9 12.32 9 13.64 9 15 C4.95740206 12.92407133 2.89088689 11.15995116 1 7 C0.3125 3.1875 0.3125 3.1875 0 0 Z " fill="#E3E9E9" transform="translate(271,90)"/>
<path d="M0 0 C0 0.33 0 0.66 0 1 C-4.53953448 2.12811493 -8.9161826 2.18351174 -13.5625 2.1875 C-14.69461914 2.20586914 -14.69461914 2.20586914 -15.84960938 2.22460938 C-19.71233893 2.23481923 -22.73128084 2.19359668 -26 0 C-17.22612019 -0.70757095 -8.7521697 -1.36752652 0 0 Z " fill="#48455D" transform="translate(219,352)"/>
<path d="M0 0 C0.33 0 0.66 0 1 0 C0.67 3.3 0.34 6.6 0 10 C-0.33 9.34 -0.66 8.68 -1 8 C-1.433125 8.495 -1.86625 8.99 -2.3125 9.5 C-4 11 -4 11 -7 11 C-7 11.66 -7 12.32 -7 13 C-9.70879335 14.35439668 -12.00933268 14.06501451 -15 14 C-14.01 13.34 -13.02 12.68 -12 12 C-10.989375 11.29875 -9.97875 10.5975 -8.9375 9.875 C-6 8 -6 8 -4 8 C-3.566875 7.13375 -3.566875 7.13375 -3.125 6.25 C-2.08333333 4.16666667 -1.04166667 2.08333333 0 0 Z " fill="#4B5673" transform="translate(272,235)"/>
<path d="M0 0 C2 1 4 2 6 3 C6.625 5.5625 6.625 5.5625 7 8 C6.43796875 7.68289062 5.8759375 7.36578125 5.296875 7.0390625 C2.84803683 5.93125475 0.91612145 5.61024601 -1.75 5.375 C-2.94882813 5.26285156 -2.94882813 5.26285156 -4.171875 5.1484375 C-5.07679688 5.07496094 -5.07679688 5.07496094 -6 5 C-6 4.01 -6 3.02 -6 2 C-5.01 2.33 -4.02 2.66 -3 3 C-2.01 2.01 -1.02 1.02 0 0 Z " fill="#283C60" transform="translate(184,237)"/>
<path d="M0 0 C-0.66 0 -1.32 0 -2 0 C-2 0.66 -2 1.32 -2 2 C0.31 2 2.62 2 5 2 C5 2.33 5 2.66 5 3 C2.36 3 -0.28 3 -3 3 C-3.33 4.98 -3.66 6.96 -4 9 C-4.99 8.67 -5.98 8.34 -7 8 C-7.33 5.69 -7.66 3.38 -8 1 C-4.93251126 -0.86240388 -3.40254489 -1.2151946 0 0 Z " fill="#F2B290" transform="translate(253,228)"/>
<path d="M0 0 C0.66 0.33 1.32 0.66 2 1 C2.59772099 3.9829661 2.74337815 6.96330805 3 10 C0.36 11.65 -2.28 13.3 -5 15 C-5 13.68 -5 12.36 -5 11 C-3.68 11 -2.36 11 -1 11 C-0.67 7.37 -0.34 3.74 0 0 Z " fill="#F3E9D9" transform="translate(176,349)"/>
<path d="M0 0 C0.99 0 1.98 0 3 0 C3 3.96 3 7.92 3 12 C2.34 12 1.68 12 1 12 C0.34 13.32 -0.32 14.64 -1 16 C-1.02725341 14.2709226 -1.04650987 12.54171824 -1.0625 10.8125 C-1.07410156 9.84957031 -1.08570313 8.88664062 -1.09765625 7.89453125 C-1.00486622 5.14423487 -0.62111685 2.67520409 0 0 Z " fill="#55617E" transform="translate(158,87)"/>
<path d="M0 0 C-1 1 -1 1 -4.59765625 1.09765625 C-6.08596867 1.0909822 -7.57426432 1.07902183 -9.0625 1.0625 C-9.82111328 1.05798828 -10.57972656 1.05347656 -11.36132812 1.04882812 C-13.24091871 1.0370068 -15.12046899 1.01907078 -17 1 C-17 0.34 -17 -0.32 -17 -1 C-5.16939252 -3.30841121 -5.16939252 -3.30841121 0 0 Z " fill="#FAF9F4" transform="translate(181,166)"/>
<path d="M0 0 C-0.33 0.66 -0.66 1.32 -1 2 C-1.66 2 -2.32 2 -3 2 C-3.33 2.99 -3.66 3.98 -4 5 C-4.99 5 -5.98 5 -7 5 C-7.99 5.495 -7.99 5.495 -9 6 C-9.33 4.68 -9.66 3.36 -10 2 C-11.98 2 -13.96 2 -16 2 C-16 1.67 -16 1.34 -16 1 C-14.27111445 0.83044205 -12.54187557 0.66448486 -10.8125 0.5 C-9.84957031 0.4071875 -8.88664063 0.314375 -7.89453125 0.21875 C-5.24812333 0.01875156 -2.65239135 -0.03879183 0 0 Z " fill="#45516F" transform="translate(185,236)"/>
<path d="M0 0 C0.66 0.66 1.32 1.32 2 2 C0.23871656 3.36656457 -1.53436088 4.71794085 -3.3125 6.0625 C-4.29863281 6.81660156 -5.28476562 7.57070312 -6.30078125 8.34765625 C-7.19152344 8.89292969 -8.08226562 9.43820313 -9 10 C-9.99 9.67 -10.98 9.34 -12 9 C-12 8.34 -12 7.68 -12 7 C-10.68 7 -9.36 7 -8 7 C-7.67 5.68 -7.34 4.36 -7 3 C-3.535 2.505 -3.535 2.505 0 2 C0 1.34 0 0.68 0 0 Z " fill="#EBA788" transform="translate(313,233)"/>
<path d="M0 0 C1.32 0 2.64 0 4 0 C3.67 2.31 3.34 4.62 3 7 C1.35 7 -0.3 7 -2 7 C-2.33 6.34 -2.66 5.68 -3 5 C-1.8125 2.375 -1.8125 2.375 0 0 Z " fill="#243B5D" transform="translate(150,234)"/>
<path d="M0 0 C1.32 0.66 2.64 1.32 4 2 C4 4.64 4 7.28 4 10 C2.02 9.34 0.04 8.68 -2 8 C-1.34 5.36 -0.68 2.72 0 0 Z " fill="#ECBC9C" transform="translate(225,232)"/>
<path d="M0 0 C1.46224799 0.42423244 2.91973412 0.86490245 4.375 1.3125 C5.18710938 1.55613281 5.99921875 1.79976562 6.8359375 2.05078125 C9 3 9 3 11 6 C10.01 6.33 9.02 6.66 8 7 C6.32936253 6.00664799 4.66324401 5.00568242 3 4 C-0.19395026 3.28598768 -0.19395026 3.28598768 -3 3 C-2.01 2.67 -1.02 2.34 0 2 C0 1.34 0 0.68 0 0 Z " fill="#DEE4E9" transform="translate(249,170)"/>
<path d="M0 0 C5.52677733 -0.19392201 9.75614911 0.2520497 15 2 C14.67 2.66 14.34 3.32 14 4 C12.4156683 3.91231752 10.83246433 3.80412671 9.25 3.6875 C7.92742187 3.60048828 7.92742187 3.60048828 6.578125 3.51171875 C3.67696226 2.9358819 2.20774393 1.92403852 0 0 Z " fill="#F2ECE4" transform="translate(157,219)"/>
<path d="M0 0 C1.46015291 0.28241641 2.91809793 0.57626614 4.375 0.875 C5.18710937 1.03742188 5.99921875 1.19984375 6.8359375 1.3671875 C9 2 9 2 11 4 C10.67 4.66 10.34 5.32 10 6 C6.37 5.01 2.74 4.02 -1 3 C-0.67 2.01 -0.34 1.02 0 0 Z " fill="#D9DFDF" transform="translate(295,107)"/>
<path d="M0 0 C0.66 0 1.32 0 2 0 C0.53374144 3.34820898 -1.33658447 5.69266359 -3.875 8.3125 C-4.55304688 9.03050781 -5.23109375 9.74851562 -5.9296875 10.48828125 C-8 12 -8 12 -10.2578125 11.73046875 C-11.12019531 11.36888672 -11.12019531 11.36888672 -12 11 C-11.30132812 10.45730469 -10.60265625 9.91460937 -9.8828125 9.35546875 C-8.97273438 8.64003906 -8.06265625 7.92460937 -7.125 7.1875 C-6.22007812 6.47980469 -5.31515625 5.77210938 -4.3828125 5.04296875 C-1.83397044 3.04412259 -1.83397044 3.04412259 0 0 Z " fill="#FDF5E1" transform="translate(361,373)"/>
<path d="M0 0 C0.66 0 1.32 0 2 0 C2.44041451 5.28497409 2.44041451 5.28497409 2 8 C-0.5 10.5 -0.5 10.5 -3 12 C-3.66 11.67 -4.32 11.34 -5 11 C-4.72285156 10.45730469 -4.44570313 9.91460937 -4.16015625 9.35546875 C-3.79792969 8.64003906 -3.43570312 7.92460937 -3.0625 7.1875 C-2.52302734 6.12595703 -2.52302734 6.12595703 -1.97265625 5.04296875 C-0.89269484 2.88189715 -0.89269484 2.88189715 0 0 Z " fill="#E1E5E4" transform="translate(316,246)"/>
<path d="M0 0 C1.231394 3.69418201 0.64432764 6.2056261 0 10 C-0.33 9.34 -0.66 8.68 -1 8 C-1.99 8.66 -2.98 9.32 -4 10 C-6.26171875 9.9765625 -6.26171875 9.9765625 -8.6875 9.625 C-9.49574219 9.51414063 -10.30398438 9.40328125 -11.13671875 9.2890625 C-11.75160156 9.19367188 -12.36648438 9.09828125 -13 9 C-12.34 7.68 -11.68 6.36 -11 5 C-11 5.66 -11 6.32 -11 7 C-7.33694766 7.74926071 -4.57644848 8.2380014 -1 7 C-0.67 4.69 -0.34 2.38 0 0 Z " fill="#5B6279" transform="translate(287,223)"/>
<path d="M0 0 C2.92879371 0.62759865 5.36095629 1.58622659 8 3 C7.67 4.32 7.34 5.64 7 7 C4.36 5.68 1.72 4.36 -1 3 C-0.67 2.01 -0.34 1.02 0 0 Z " fill="#DDE3EA" transform="translate(181,165)"/>
<path d="M0 0 C1.32 0.33 2.64 0.66 4 1 C3.60167969 1.43570313 3.20335937 1.87140625 2.79296875 2.3203125 C-0.48936831 6.00994686 -2.99399746 9.43077198 -5 14 C-5.33 14 -5.66 14 -6 14 C-6 12.35 -6 10.7 -6 9 C-5.34 9 -4.68 9 -4 9 C-3.71125 8.071875 -3.4225 7.14375 -3.125 6.1875 C-2 3 -2 3 0 0 Z " fill="#363B57" transform="translate(178,138)"/>
<path d="M0 0 C0.33 0.66 0.66 1.32 1 2 C0.34 2 -0.32 2 -1 2 C-1.33 3.65 -1.66 5.3 -2 7 C-3.32 6.67 -4.64 6.34 -6 6 C-6.33 4.68 -6.66 3.36 -7 2 C-4.69 1.34 -2.38 0.68 0 0 Z " fill="#4F5773" transform="translate(222,239)"/>
<path d="M0 0 C2.64752004 2.57784846 4.94432065 4.91648098 7 8 C5.68 8.33 4.36 8.66 3 9 C0.9375 6.1875 0.9375 6.1875 -1 3 C-0.67 2.01 -0.34 1.02 0 0 Z " fill="#FDF1E5" transform="translate(218,212)"/>
<path d="M0 0 C0.66 0.33 1.32 0.66 2 1 C1 3 0 5 -1 7 C-0.01 6.67 0.98 6.34 2 6 C1.67 7.65 1.34 9.3 1 11 C0.01 10.67 -0.98 10.34 -2 10 C-1.85950482 8.52031676 -1.71245174 7.04125484 -1.5625 5.5625 C-1.48128906 4.73878906 -1.40007812 3.91507812 -1.31640625 3.06640625 C-1 1 -1 1 0 0 Z " fill="#F4A654" transform="translate(159,377)"/>
<path d="M0 0 C1.65 0.33 3.3 0.66 5 1 C4.67 3.31 4.34 5.62 4 8 C3.67 7.34 3.34 6.68 3 6 C2.34 5.67 1.68 5.34 1 5 C0.34 4.67 -0.32 4.34 -1 4 C-0.67 2.68 -0.34 1.36 0 0 Z " fill="#485B7C" transform="translate(312,241)"/>
<path d="M0 0 C2.97 0.495 2.97 0.495 6 1 C6 2.32 6 3.64 6 5 C4.02 5 2.04 5 0 5 C0 3.35 0 1.7 0 0 Z " fill="#253860" transform="translate(166,237)"/>
<path d="M0 0 C1.98 0 3.96 0 6 0 C7.24546405 2.49092811 6.7767578 3.41080733 6 6 C3.37812506 4.95125002 2.20628639 4.35068687 0.75 1.875 C0.5025 1.25625 0.255 0.6375 0 0 Z " fill="#E4BD9F" transform="translate(162,231)"/>
<path d="M0 0 C3.96 0 7.92 0 12 0 C11.01 1.485 11.01 1.485 10 3 C6.375 3.6875 6.375 3.6875 3 4 C3 3.34 3 2.68 3 2 C2.01 1.67 1.02 1.34 0 1 C0 0.67 0 0.34 0 0 Z " fill="#F6CDB1" transform="translate(234,228)"/>
<path d="M0 0 C0 0.99 0 1.98 0 3 C-5.34883721 8 -5.34883721 8 -8 8 C-8 6.68 -8 5.36 -8 4 C-5.36 2.68 -2.72 1.36 0 0 Z " fill="#F5A64A" transform="translate(307,365)"/>
<path d="M0 0 C2.12087964 4.24175928 2.25765477 6.3622141 2 11 C1.67 11.66 1.34 12.32 1 13 C0.34 13 -0.32 13 -1 13 C-0.67 8.71 -0.34 4.42 0 0 Z " fill="#E8AA8C" transform="translate(287,226)"/>
<path d="M0 0 C0.99 0 1.98 0 3 0 C3.1953125 6.0546875 3.1953125 6.0546875 3 8 C2.34 8.66 1.68 9.32 1 10 C0.814375 8.576875 0.814375 8.576875 0.625 7.125 C0.28312823 3.91332809 0.28312823 3.91332809 -2 2 C-1.34 1.34 -0.68 0.68 0 0 Z " fill="#2A3860" transform="translate(157,220)"/>
<path d="M0 0 C1.32 0.66 2.64 1.32 4 2 C3.01 3.485 3.01 3.485 2 5 C-3.94 3.515 -3.94 3.515 -10 2 C-10 1.67 -10 1.34 -10 1 C-9.36191406 1.01160156 -8.72382813 1.02320312 -8.06640625 1.03515625 C-7.24011719 1.04417969 -6.41382813 1.05320312 -5.5625 1.0625 C-4.32693359 1.07990234 -4.32693359 1.07990234 -3.06640625 1.09765625 C-1.00836062 1.23267348 -1.00836062 1.23267348 0 0 Z " fill="#546282" transform="translate(302,105)"/>
<path d="M0 0 C2.97 0 5.94 0 9 0 C7.26440562 3.057952 5.61527381 5.63379989 3 8 C3.875 3.25 3.875 3.25 5 1 C3.35 1 1.7 1 0 1 C0 0.67 0 0.34 0 0 Z " fill="#DFE4E2" transform="translate(168,62)"/>
<path d="M0 0 C5.75 1.625 5.75 1.625 8 5 C6.35 5.33 4.7 5.66 3 6 C0 2.25 0 2.25 0 0 Z " fill="#EE9E7A" transform="translate(185,259)"/>
<path d="M0 0 C3.96 0 7.92 0 12 0 C12 0.33 12 0.66 12 1 C9.36 1 6.72 1 4 1 C4 1.99 4 2.98 4 4 C2.68 4 1.36 4 0 4 C0 2.68 0 1.36 0 0 Z " fill="#626074" transform="translate(200,242)"/>
<path d="M0 0 C0.66 0 1.32 0 2 0 C1.82374165 2.37948772 1.30280227 3.70225849 -0.40234375 5.37890625 C-1.90649092 6.62115486 -3.45129851 7.81376056 -5 9 C-5.66 8.67 -6.32 8.34 -7 8 C-5.88200014 6.66079162 -4.75538103 5.32877444 -3.625 4 C-2.68527344 2.88625 -2.68527344 2.88625 -1.7265625 1.75 C-1.15679687 1.1725 -0.58703125 0.595 0 0 Z " fill="#F5AD62" transform="translate(169,364)"/>
<path d="M0 0 C1.65 0.33 3.3 0.66 5 1 C3.12050295 4.57104439 1.82946843 6.54744301 -2 8 C-2 7.01 -2 6.02 -2 5 C-1.34 4.67 -0.68 4.34 0 4 C0 2.68 0 1.36 0 0 Z " fill="#EDC1A6" transform="translate(234,282)"/>
<path d="M0 0 C0.99 0 1.98 0 3 0 C3 2.97 3 5.94 3 9 C0.9375 7.3125 0.9375 7.3125 -1 5 C-0.75 2.25 -0.75 2.25 0 0 Z " fill="#E8815C" transform="translate(299,246)"/>
<path d="M0 0 C0.99 0.33 1.98 0.66 3 1 C0.03 4.96 0.03 4.96 -3 9 C-4 5 -4 5 -3 3 C-2.34 3 -1.68 3 -1 3 C-0.67 2.01 -0.34 1.02 0 0 Z " fill="#DBE0E4" transform="translate(146,230)"/>
<path d="M0 0 C0.66 0.66 1.32 1.32 2 2 C-0.64 3.98 -3.28 5.96 -6 8 C-6.66 7.67 -7.32 7.34 -8 7 C-6.41641358 3.83282717 -5.54736301 2.26731682 -2.3125 0.6875 C-1.549375 0.460625 -0.78625 0.23375 0 0 Z " fill="#FBF7EF" transform="translate(228,173)"/>
<path d="M0 0 C0.6328125 1.828125 0.6328125 1.828125 1 4 C-1.125 6.75 -1.125 6.75 -4 9 C-6.8125 9.3125 -6.8125 9.3125 -9 9 C-8.443125 8.814375 -7.88625 8.62875 -7.3125 8.4375 C-3.93245808 6.33639286 -2.14859619 3.29334006 0 0 Z " fill="#495069" transform="translate(192,283)"/>
<path d="M0 0 C2.31 0 4.62 0 7 0 C7 0.33 7 0.66 7 1 C4.69 1.33 2.38 1.66 0 2 C0 1.34 0 0.68 0 0 Z M-2 1 C-0.97895449 1.97850195 0.0206121 2.97980427 1 4 C1 4.33 1 4.66 1 5 C-0.65 5 -2.3 5 -4 5 C-4 4.01 -4 3.02 -4 2 C-3.34 1.67 -2.68 1.34 -2 1 Z " fill="#4C5772" transform="translate(238,195)"/>
<path d="M0 0 C0.33 1.65 0.66 3.3 1 5 C-1.97 4.505 -1.97 4.505 -5 4 C-5 3.01 -5 2.02 -5 1 C-3 0 -3 0 0 0 Z " fill="#3B4C6C" transform="translate(207,138)"/>
<path d="M0 0 C0.33 0 0.66 0 1 0 C1.33 3.3 1.66 6.6 2 10 C1.01 10.33 0.02 10.66 -1 11 C-0.67 7.37 -0.34 3.74 0 0 Z " fill="#233863" transform="translate(159,94)"/>
<path d="M0 0 C0 3.99904969 -1.72586967 5.80200422 -4 9 C-5.32 8.67 -6.64 8.34 -8 8 C-5.33333333 5.33333333 -2.66666667 2.66666667 0 0 Z " fill="#4D536F" transform="translate(240,282)"/>
<path d="M0 0 C2.0625 0.4375 2.0625 0.4375 4 1 C4 1.99 4 2.98 4 4 C3.01 4 2.02 4 1 4 C0.67 4.66 0.34 5.32 0 6 C-0.38218767 4.34385343 -0.71395102 2.67542976 -1 1 C-0.67 0.67 -0.34 0.34 0 0 Z " fill="#454C71" transform="translate(177,183)"/>
<path d="M0 0 C0.33 0.99 0.66 1.98 1 3 C-1.31 5.31 -3.62 7.62 -6 10 C-6 6.41087588 -5.33563446 5.89142971 -3 3.3125 C-2.443125 2.68988281 -1.88625 2.06726563 -1.3125 1.42578125 C-0.879375 0.95527344 -0.44625 0.48476562 0 0 Z " fill="#F7CFB2" transform="translate(225,177)"/>
<path d="M0 0 C2.475 0.99 2.475 0.99 5 2 C4.67 3.32 4.34 4.64 4 6 C2.68 5.67 1.36 5.34 0 5 C0 3.35 0 1.7 0 0 Z " fill="#556281" transform="translate(224,240)"/>
<path d="M0 0 C1.32 0 2.64 0 4 0 C4 0.99 4 1.98 4 3 C4.66 3.33 5.32 3.66 6 4 C3.36 4 0.72 4 -2 4 C-1.34 3.67 -0.68 3.34 0 3 C0 2.01 0 1.02 0 0 Z " fill="#283B61" transform="translate(204,243)"/>
<path d="M0 0 C1.89213369 2.38573379 3.02391783 4.07175348 4 7 C2.02 7.99 2.02 7.99 0 9 C0 6.03 0 3.06 0 0 Z " fill="#E1E5DD" transform="translate(161,154)"/>
<path d="M0 0 C0.99 0 1.98 0 3 0 C3 1.65 3 3.3 3 5 C1.02 5.99 1.02 5.99 -1 7 C-0.67 4.69 -0.34 2.38 0 0 Z " fill="#F8C6A2" transform="translate(172,154)"/>
<path d="M0 0 C2.97 0.33 5.94 0.66 9 1 C8.67 1.66 8.34 2.32 8 3 C5.03 2.67 2.06 2.34 -1 2 C-0.67 1.34 -0.34 0.68 0 0 Z " fill="#33456B" transform="translate(293,104)"/>
<path d="M0 0 C0.33 0 0.66 0 1 0 C0.67 2.31 0.34 4.62 0 7 C-0.66 7 -1.32 7 -2 7 C-2.33 7.66 -2.66 8.32 -3 9 C-2.25 2.25 -2.25 2.25 0 0 Z " fill="#263D67" transform="translate(279,271)"/>
<path d="M0 0 C1.32 0 2.64 0 4 0 C3.67 1.65 3.34 3.3 3 5 C2.01 5 1.02 5 0 5 C0 3.35 0 1.7 0 0 Z " fill="#505E7E" transform="translate(273,89)"/>
<path d="M0 0 C0 3.53986194 -0.58152803 4.49515403 -3 7 C-4.32 7 -5.64 7 -7 7 C-7 6.34 -7 5.68 -7 5 C-5.03277992 3.61876037 -3.03131672 2.28511874 -1 1 C-0.67 0.67 -0.34 0.34 0 0 Z " fill="#DEE4E2" transform="translate(310,259)"/>
<path d="M0 0 C-2.16695725 2.16695725 -2.99611368 2.73495121 -6 3 C-8.25 1.5625 -8.25 1.5625 -10 0 C-6.42355152 -1.2380014 -3.66305234 -0.74926071 0 0 Z " fill="#EABFA5" transform="translate(262,246)"/>
<path d="M0 0 C0.625 1.8125 0.625 1.8125 1 4 C-1.21934164 7.32901247 -2.34683329 7.75023244 -6 9 C-6 8.01 -6 7.02 -6 6 C-4.34467377 4.98133771 -2.67739862 3.98189187 -1 3 C-0.67 2.01 -0.34 1.02 0 0 Z " fill="#D5AFA0" transform="translate(252,193)"/>
<path d="M0 0 C0 3 0 3 -1.53125 4.60546875 C-2.1809375 5.12753906 -2.830625 5.64960937 -3.5 6.1875 C-4.1496875 6.71730469 -4.799375 7.24710938 -5.46875 7.79296875 C-5.9740625 8.19128906 -6.479375 8.58960937 -7 9 C-5.27845212 5.23511958 -3.00765886 2.84936103 0 0 Z " fill="#3E5073" transform="translate(183,56)"/>
<path d="M0 0 C2.31 0 4.62 0 7 0 C5.02 0.99 5.02 0.99 3 2 C3 2.99 3 3.98 3 5 C2.01 5 1.02 5 0 5 C0 3.35 0 1.7 0 0 Z " fill="#354974" transform="translate(180,246)"/>
<path d="M0 0 C1 2 1 2 1 5 C1.66 4.67 2.32 4.34 3 4 C3 4.99 3 5.98 3 7 C1.125 6.6875 1.125 6.6875 -1 6 C-1.66 5.01 -2.32 4.02 -3 3 C-2.01 2.01 -1.02 1.02 0 0 Z " fill="#F6B99E" transform="translate(264,218)"/>
<path d="M0 0 C1.32 0.66 2.64 1.32 4 2 C3.01 2.495 3.01 2.495 2 3 C0.86649466 5.01669827 0.86649466 5.01669827 0 7 C-0.93423645 3.98968256 -1.04449911 3.13349732 0 0 Z " fill="#F4B08F" transform="translate(265,217)"/>
<path d="M0 0 C1.41377341 2.63904371 2.37240135 5.07120629 3 8 C1.68 7.67 0.36 7.34 -1 7 C-0.67 4.69 -0.34 2.38 0 0 Z " fill="#DAB69A" transform="translate(272,184)"/>
<path d="M0 0 C2.0625 0.4375 2.0625 0.4375 4 1 C3.01 1.66 2.02 2.32 1 3 C0.27617533 5.05925139 0.27617533 5.05925139 0 7 C-0.66 6.67 -1.32 6.34 -2 6 C-1.125 1.125 -1.125 1.125 0 0 Z " fill="#F3E1D7" transform="translate(157,163)"/>
</svg>
